<svg xmlns="http://www.w3.org/2000/svg" viewBox="-443.6 -314.7 887.2 554.8" shape-rendering="geometricPrecision"><path d="M-426.91 -44.36L-426.85 -48.15L-425.04 -51.81L-421.59 -55.08L-145.78 -252.49L-140.93 -255.15L-135.03 -257.02L-128.46 -257.97L-121.67 -257.94L-115.13 -256.92L-109.28 -255.00L417.11 -25.02L421.87 -22.31L425.21 -19.01L426.91 -15.34L426.91 14.51L426.85 18.31L425.04 21.96L421.59 25.23L145.78 222.64L140.93 225.30L135.03 227.17L128.46 228.12L121.67 228.09L115.13 227.08L109.28 225.15L-417.11 -4.82L-421.87 -7.53L-425.21 -10.84L-426.91 -14.51Z" fill="#e3e3e3" stroke="#4a4a4a" stroke-width=".6" vector-effect="non-scaling-stroke" stroke-linejoin="round"/><path d="M128.46 198.28L128.46 228.12" stroke="#4a4a4a" stroke-width=".6" vector-effect="non-scaling-stroke"/><path d="M417.11 -25.02L421.87 -22.31L425.21 -19.01L426.91 -15.34L426.85 -11.54L425.04 -7.88L421.59 -4.61L145.78 192.80L140.93 195.46L135.03 197.33L128.46 198.28L121.67 198.25L115.13 197.23L109.28 195.30L-417.11 -34.67L-421.87 -37.38L-425.21 -40.68L-426.91 -44.36L-426.85 -48.15L-425.04 -51.81L-421.59 -55.08L-145.78 -252.49L-140.93 -255.15L-135.03 -257.02L-128.46 -257.97L-121.67 -257.94L-115.13 -256.92L-109.28 -255.00Z" fill="#efefef" stroke="#4a4a4a" stroke-width=".6" vector-effect="non-scaling-stroke"/><circle cx="-127.39" cy="-253.11" r="2.4" fill="#1a1a1a"/><circle cx="418.23" cy="-14.74" r="2.4" fill="#1a1a1a"/><circle cx="127.39" cy="193.42" r="2.4" fill="#1a1a1a"/><circle cx="-418.23" cy="-44.95" r="2.4" fill="#1a1a1a"/><circle cx="418.23" cy="9.73" r="2.4" fill="#1a1a1a"/><circle cx="127.39" cy="217.90" r="2.4" fill="#1a1a1a"/><circle cx="-418.23" cy="-20.48" r="2.4" fill="#1a1a1a"/><path d="M-401.30 -47.77L-401.26 -50.69L-399.86 -53.50L-397.21 -56.02L-138.63 -241.09L-134.91 -243.14L-130.37 -244.58L-125.31 -245.31L-120.09 -245.28L-115.06 -244.50L-110.56 -243.02L393.77 -22.69L397.43 -20.60L400.00 -18.06L401.30 -15.24L401.30 -13.58L401.26 -10.66L399.86 -7.84L397.21 -5.33L138.63 179.74L134.91 181.79L130.37 183.23L125.31 183.96L120.09 183.93L115.06 183.15L110.56 181.67L-393.77 -38.66L-397.43 -40.75L-400.00 -43.29L-401.30 -46.11Z" fill="#e6e6e6" stroke="#4a4a4a" stroke-width=".6" vector-effect="non-scaling-stroke" stroke-linejoin="round"/><path d="M125.31 182.30L125.31 183.96" stroke="#4a4a4a" stroke-width=".6" vector-effect="non-scaling-stroke"/><path d="M393.77 -22.69L397.43 -20.60L400.00 -18.06L401.30 -15.24L401.26 -12.32L399.86 -9.50L397.21 -6.99L138.63 178.09L134.91 180.13L130.37 181.57L125.31 182.30L120.09 182.28L115.06 181.50L110.56 180.01L-393.77 -40.32L-397.43 -42.40L-400.00 -44.94L-401.30 -47.77L-401.26 -50.69L-399.86 -53.50L-397.21 -56.02L-138.63 -241.09L-134.91 -243.14L-130.37 -244.58L-125.31 -245.31L-120.09 -245.28L-115.06 -244.50L-110.56 -243.02Z" fill="#f3f3f3" stroke="#4a4a4a" stroke-width=".6" vector-effect="non-scaling-stroke"/><path d="M-119.80 -237.24L-118.88 -236.72L-118.24 -236.08L-117.91 -235.38L-117.92 -234.65L-118.27 -233.94L-118.93 -233.32L-118.93 -233.32L-119.87 -232.80L-121.00 -232.44L-122.27 -232.26L-123.57 -232.27L-124.83 -232.46L-125.95 -232.83L-125.95 -232.83L-126.87 -233.35L-127.51 -233.99L-127.84 -234.70L-127.83 -235.43L-127.48 -236.13L-126.81 -236.76L-126.81 -236.76L-125.88 -237.27L-124.75 -237.63L-123.48 -237.81L-122.18 -237.81L-120.92 -237.61L-119.80 -237.24Z" fill="#dadada"/><path d="M-107.19 -231.73L-106.27 -231.21L-105.63 -230.58L-105.30 -229.87L-105.32 -229.14L-105.66 -228.44L-106.33 -227.81L-106.33 -227.81L-107.26 -227.30L-108.39 -226.94L-109.66 -226.75L-110.96 -226.76L-112.22 -226.95L-113.34 -227.32L-113.34 -227.32L-114.26 -227.85L-114.90 -228.48L-115.23 -229.19L-115.22 -229.92L-114.87 -230.62L-114.21 -231.25L-114.21 -231.25L-113.28 -231.76L-112.14 -232.12L-110.88 -232.30L-109.57 -232.30L-108.31 -232.10L-107.19 -231.73Z" fill="#f6f6f6" stroke="#9a9a9a" stroke-width="0.6" vector-effect="non-scaling-stroke"/><path d="M-94.58 -226.22L-93.67 -225.70L-93.02 -225.07L-92.70 -224.36L-92.71 -223.63L-93.06 -222.93L-93.72 -222.30L-93.72 -222.30L-94.65 -221.79L-95.79 -221.43L-97.05 -221.24L-98.35 -221.25L-99.61 -221.45L-100.74 -221.82L-100.74 -221.82L-101.65 -222.34L-102.29 -222.97L-102.62 -223.68L-102.61 -224.41L-102.26 -225.11L-101.60 -225.74L-101.60 -225.74L-100.67 -226.25L-99.53 -226.61L-98.27 -226.79L-96.96 -226.79L-95.70 -226.59L-94.58 -226.22Z" fill="#f6f6f6" stroke="#9a9a9a" stroke-width="0.6" vector-effect="non-scaling-stroke"/><path d="M-126.96 -221.21L-125.87 -220.59L-125.09 -219.82L-124.70 -218.98L-124.72 -218.10L-125.13 -217.26L-125.93 -216.50L-132.09 -212.09L-133.20 -211.48L-134.57 -211.05L-136.08 -210.83L-137.65 -210.84L-139.16 -211.07L-140.51 -211.52L-148.39 -214.96L-149.49 -215.58L-150.26 -216.35L-150.65 -217.19L-150.64 -218.07L-150.22 -218.91L-149.42 -219.67L-143.27 -224.08L-142.15 -224.69L-140.78 -225.12L-139.27 -225.34L-137.70 -225.33L-136.19 -225.10L-134.84 -224.65Z" fill="#f6f6f6" stroke="#9a9a9a" stroke-width="0.6" vector-effect="non-scaling-stroke"/><path d="M42.04 -140.99L42.50 -140.73L42.82 -140.41L42.98 -140.06L42.98 -139.69L42.80 -139.34L42.47 -139.03L42.47 -139.03L42.01 -138.77L41.44 -138.59L40.81 -138.50L40.15 -138.50L39.52 -138.60L38.96 -138.79L14.53 -149.46L14.08 -149.72L13.76 -150.04L13.59 -150.39L13.60 -150.75L13.77 -151.11L14.10 -151.42L14.10 -151.42L14.57 -151.68L15.14 -151.86L15.77 -151.95L16.42 -151.94L17.05 -151.85L17.61 -151.66Z" fill="#dadada"/><path d="M-51.27 -132.79L-49.99 -132.06L-49.09 -131.17L-48.63 -130.18L-48.64 -129.16L-49.13 -128.18L-50.06 -127.29L-50.06 -127.29L-51.36 -126.58L-52.95 -126.08L-54.72 -125.82L-56.55 -125.83L-58.31 -126.10L-59.89 -126.62L-190.70 -183.77L-191.98 -184.50L-192.88 -185.39L-193.33 -186.38L-193.32 -187.40L-192.83 -188.38L-191.90 -189.26L-191.90 -189.26L-190.60 -189.98L-189.01 -190.48L-187.24 -190.74L-185.41 -190.73L-183.65 -190.46L-182.08 -189.94Z" fill="#c9c9c9"/><path d="M-163.51 -137.83L-161.13 -136.48L-159.46 -134.83L-158.61 -132.99L-158.64 -131.09L-159.55 -129.26L-161.27 -127.63L-161.27 -127.63L-163.69 -126.30L-166.64 -125.36L-169.93 -124.89L-173.32 -124.90L-176.59 -125.41L-179.52 -126.37L-231.53 -149.10L-233.91 -150.45L-235.58 -152.10L-236.43 -153.94L-236.40 -155.84L-235.49 -157.66L-233.77 -159.30L-233.77 -159.30L-231.35 -160.63L-228.39 -161.56L-225.11 -162.04L-221.71 -162.02L-218.44 -161.52L-215.52 -160.55Z" fill="#f6f6f6" stroke="#9a9a9a" stroke-width="0.6" vector-effect="non-scaling-stroke"/><path d="M86.17 -121.71L86.63 -121.45L86.95 -121.13L87.11 -120.78L87.11 -120.41L86.93 -120.06L86.60 -119.75L86.60 -119.75L86.13 -119.49L85.57 -119.31L84.93 -119.22L84.28 -119.22L83.65 -119.32L83.09 -119.51L58.66 -130.18L58.21 -130.44L57.88 -130.76L57.72 -131.11L57.73 -131.47L57.90 -131.83L58.23 -132.14L58.23 -132.14L58.70 -132.40L59.27 -132.58L59.90 -132.67L60.55 -132.66L61.18 -132.57L61.74 -132.38Z" fill="#dadada"/><path d="M-88.11 -120.50L-87.65 -120.24L-87.33 -119.92L-87.17 -119.57L-87.17 -119.20L-87.35 -118.85L-87.68 -118.54L-87.68 -118.54L-88.14 -118.28L-88.71 -118.10L-89.34 -118.01L-89.99 -118.01L-90.62 -118.11L-91.19 -118.30L-213.33 -171.66L-213.78 -171.92L-214.11 -172.24L-214.27 -172.59L-214.26 -172.95L-214.09 -173.31L-213.76 -173.62L-213.76 -173.62L-213.29 -173.88L-212.72 -174.06L-212.09 -174.15L-211.44 -174.14L-210.81 -174.05L-210.25 -173.86Z" fill="#dadada"/><path d="M1.68 -125.27L2.96 -124.54L3.86 -123.65L4.32 -122.66L4.30 -121.64L3.81 -120.66L2.88 -119.78L2.88 -119.78L1.58 -119.06L-0.01 -118.56L-1.78 -118.30L-3.61 -118.31L-5.37 -118.58L-6.94 -119.10L-177.15 -193.46L-178.43 -194.19L-179.33 -195.08L-179.79 -196.07L-179.77 -197.09L-179.29 -198.08L-178.36 -198.96L-178.36 -198.96L-177.05 -199.67L-175.46 -200.18L-173.69 -200.43L-171.87 -200.42L-170.11 -200.15L-168.53 -199.63Z" fill="#c9c9c9"/><path d="M-49.20 -112.02L-48.74 -111.76L-48.42 -111.44L-48.26 -111.09L-48.26 -110.72L-48.44 -110.37L-48.77 -110.05L-48.77 -110.05L-49.23 -109.80L-49.80 -109.62L-50.43 -109.53L-51.09 -109.53L-51.72 -109.63L-52.28 -109.81L-205.94 -176.95L-206.40 -177.21L-206.72 -177.52L-206.88 -177.88L-206.88 -178.24L-206.70 -178.59L-206.37 -178.91L-206.37 -178.91L-205.90 -179.16L-205.34 -179.34L-204.71 -179.44L-204.05 -179.43L-203.42 -179.33L-202.86 -179.15Z" fill="#dadada"/><path d="M130.30 -102.43L130.76 -102.17L131.08 -101.85L131.24 -101.50L131.23 -101.13L131.06 -100.78L130.73 -100.47L130.73 -100.47L130.26 -100.21L129.70 -100.03L129.06 -99.94L128.41 -99.94L127.78 -100.04L127.22 -100.23L102.79 -110.90L102.33 -111.16L102.01 -111.48L101.85 -111.83L101.85 -112.20L102.03 -112.55L102.36 -112.86L102.36 -112.86L102.83 -113.12L103.39 -113.30L104.03 -113.39L104.68 -113.39L105.31 -113.29L105.87 -113.10Z" fill="#dadada"/><path d="M-92.59 -106.85L-90.21 -105.49L-88.54 -103.84L-87.69 -102.00L-87.72 -100.11L-88.63 -98.28L-90.35 -96.64L-90.35 -96.64L-92.77 -95.31L-95.72 -94.38L-99.01 -93.90L-102.40 -93.92L-105.67 -94.43L-108.60 -95.39L-152.73 -114.67L-155.10 -116.02L-156.78 -117.67L-157.63 -119.51L-157.60 -121.41L-156.69 -123.24L-154.97 -124.87L-154.97 -124.87L-152.55 -126.20L-149.59 -127.14L-146.31 -127.61L-142.91 -127.60L-139.64 -127.09L-136.72 -126.13Z" fill="#f6f6f6" stroke="#9a9a9a" stroke-width="0.6" vector-effect="non-scaling-stroke"/><path d="M206.71 -96.72L208.17 -95.89L209.20 -94.87L209.73 -93.74L209.71 -92.57L209.15 -91.45L208.09 -90.44L208.09 -90.44L206.60 -89.62L204.78 -89.05L202.76 -88.76L200.67 -88.77L198.66 -89.08L196.86 -89.67L51.87 -153.02L50.40 -153.85L49.37 -154.87L48.85 -156.00L48.87 -157.16L49.43 -158.29L50.49 -159.30L50.49 -159.30L51.98 -160.11L53.80 -160.69L55.82 -160.98L57.91 -160.97L59.92 -160.66L61.72 -160.07Z" fill="#f6f6f6" stroke="#9a9a9a" stroke-width="0.6" vector-effect="non-scaling-stroke"/><path d="M174.43 -83.15L174.88 -82.89L175.21 -82.57L175.37 -82.22L175.36 -81.85L175.19 -81.50L174.86 -81.19L174.86 -81.19L174.39 -80.93L173.82 -80.75L173.19 -80.66L172.54 -80.66L171.91 -80.76L171.35 -80.95L146.92 -91.62L146.46 -91.88L146.14 -92.20L145.98 -92.55L145.98 -92.92L146.16 -93.27L146.49 -93.58L146.49 -93.58L146.95 -93.84L147.52 -94.02L148.15 -94.11L148.81 -94.11L149.44 -94.01L150.00 -93.82Z" fill="#dadada"/><path d="M-323.85 -107.98L-323.81 -110.31L-322.70 -112.57L-320.58 -114.58L-276.25 -146.30L-273.27 -147.94L-269.63 -149.09L-265.59 -149.68L-261.41 -149.66L-257.39 -149.03L-253.79 -147.85L-113.52 -86.57L-110.60 -84.90L-108.54 -82.87L-107.49 -80.61L-107.49 -62.37L-107.53 -60.03L-108.65 -57.78L-110.77 -55.77L-155.09 -24.04L-158.07 -22.40L-161.71 -21.25L-165.75 -20.67L-169.93 -20.69L-173.95 -21.31L-177.55 -22.50L-317.82 -83.78L-320.75 -85.45L-322.80 -87.48L-323.85 -89.74Z" fill="#e6e6e6" stroke="#4a4a4a" stroke-width=".6" vector-effect="non-scaling-stroke" stroke-linejoin="round"/><path d="M-165.75 -38.91L-165.75 -20.67" stroke="#4a4a4a" stroke-width=".6" vector-effect="non-scaling-stroke"/><path d="M-113.52 -86.57L-110.60 -84.90L-108.54 -82.87L-107.49 -80.61L-107.53 -78.27L-108.65 -76.02L-110.77 -74.01L-155.09 -42.28L-158.07 -40.64L-161.71 -39.49L-165.75 -38.91L-169.93 -38.93L-173.95 -39.55L-177.55 -40.74L-317.82 -102.02L-320.75 -103.69L-322.80 -105.72L-323.85 -107.98L-323.81 -110.31L-322.70 -112.57L-320.58 -114.58L-276.25 -146.30L-273.27 -147.94L-269.63 -149.09L-265.59 -149.68L-261.41 -149.66L-257.39 -149.03L-253.79 -147.85Z" fill="#f3f3f3" stroke="#4a4a4a" stroke-width=".6" vector-effect="non-scaling-stroke"/><circle cx="-265.05" cy="-147.23" r="1.7" fill="#1a1a1a"/><circle cx="-111.86" cy="-80.31" r="1.7" fill="#1a1a1a"/><circle cx="-166.29" cy="-41.35" r="1.7" fill="#1a1a1a"/><circle cx="-319.48" cy="-108.28" r="1.7" fill="#1a1a1a"/><path d="M362.39 -7.42L364.40 -6.27L365.82 -4.87L366.54 -3.32L366.51 -1.71L365.75 -0.17L364.29 1.22L364.29 1.22L362.24 2.34L359.74 3.13L356.96 3.54L354.09 3.52L351.32 3.09L348.85 2.28L306.29 -16.31L304.28 -17.46L302.87 -18.86L302.15 -20.41L302.17 -22.02L302.94 -23.56L304.40 -24.95L304.40 -24.95L306.45 -26.07L308.95 -26.86L311.73 -27.27L314.60 -27.25L317.36 -26.82L319.84 -26.01Z" fill="#f6f6f6" stroke="#9a9a9a" stroke-width="0.6" vector-effect="non-scaling-stroke"/><path d="M-152.06 -32.93L-152.03 -35.26L-150.91 -37.51L-148.79 -39.53L-104.46 -71.25L-101.48 -72.89L-97.85 -74.04L-93.80 -74.63L-89.63 -74.60L-85.60 -73.98L-82.00 -72.80L58.26 -11.51L61.19 -9.85L63.25 -7.82L64.29 -5.55L64.29 12.68L64.26 15.02L63.14 17.27L61.02 19.28L16.69 51.01L13.71 52.65L10.08 53.80L6.03 54.38L1.86 54.36L-2.17 53.74L-5.77 52.55L-146.03 -8.73L-148.96 -10.39L-151.02 -12.43L-152.06 -14.69Z" fill="#e6e6e6" stroke="#4a4a4a" stroke-width=".6" vector-effect="non-scaling-stroke" stroke-linejoin="round"/><path d="M6.03 36.14L6.03 54.38" stroke="#4a4a4a" stroke-width=".6" vector-effect="non-scaling-stroke"/><path d="M58.26 -11.51L61.19 -9.85L63.25 -7.82L64.29 -5.55L64.26 -3.22L63.14 -0.97L61.02 1.04L16.69 32.77L13.71 34.41L10.08 35.56L6.03 36.14L1.86 36.12L-2.17 35.50L-5.77 34.31L-146.03 -26.97L-148.96 -28.63L-151.02 -30.67L-152.06 -32.93L-152.03 -35.26L-150.91 -37.51L-148.79 -39.53L-104.46 -71.25L-101.48 -72.89L-97.85 -74.04L-93.80 -74.63L-89.63 -74.60L-85.60 -73.98L-82.00 -72.80Z" fill="#f3f3f3" stroke="#4a4a4a" stroke-width=".6" vector-effect="non-scaling-stroke"/><circle cx="-93.27" cy="-72.18" r="1.7" fill="#1a1a1a"/><circle cx="59.92" cy="-5.25" r="1.7" fill="#1a1a1a"/><circle cx="5.50" cy="33.70" r="1.7" fill="#1a1a1a"/><circle cx="-147.69" cy="-33.23" r="1.7" fill="#1a1a1a"/><path d="M6.43 -57.35L6.47 -59.69L7.58 -61.94L9.70 -63.95L76.19 -111.54L79.17 -113.18L82.81 -114.33L86.85 -114.92L91.03 -114.90L95.05 -114.27L98.65 -113.09L335.06 -9.80L337.98 -8.14L340.04 -6.10L341.09 -3.84L341.09 14.40L341.05 16.73L339.93 18.98L337.81 20.99L271.32 68.58L268.34 70.22L264.71 71.37L260.66 71.96L256.49 71.94L252.46 71.31L248.86 70.13L12.46 -33.16L9.53 -34.82L7.48 -36.85L6.43 -39.12Z" fill="#e6e6e6" stroke="#4a4a4a" stroke-width=".6" vector-effect="non-scaling-stroke" stroke-linejoin="round"/><path d="M260.66 53.72L260.66 71.96" stroke="#4a4a4a" stroke-width=".6" vector-effect="non-scaling-stroke"/><path d="M335.06 -9.80L337.98 -8.14L340.04 -6.10L341.09 -3.84L341.05 -1.51L339.93 0.74L337.81 2.76L271.32 50.35L268.34 51.98L264.71 53.13L260.66 53.72L256.49 53.70L252.46 53.07L248.86 51.89L12.46 -51.39L9.53 -53.06L7.48 -55.09L6.43 -57.35L6.47 -59.69L7.58 -61.94L9.70 -63.95L76.19 -111.54L79.17 -113.18L82.81 -114.33L86.85 -114.92L91.03 -114.90L95.05 -114.27L98.65 -113.09Z" fill="#f3f3f3" stroke="#4a4a4a" stroke-width=".6" vector-effect="non-scaling-stroke"/><circle cx="87.39" cy="-112.47" r="1.7" fill="#1a1a1a"/><circle cx="336.72" cy="-3.54" r="1.7" fill="#1a1a1a"/><circle cx="260.13" cy="51.27" r="1.7" fill="#1a1a1a"/><circle cx="10.80" cy="-57.65" r="1.7" fill="#1a1a1a"/><path d="M19.72 42.12L19.76 39.79L20.88 37.54L23.00 35.53L67.32 3.80L70.30 2.16L73.94 1.01L77.98 0.43L82.16 0.45L86.18 1.07L89.78 2.26L230.05 63.54L232.98 65.20L235.03 67.24L236.08 69.50L236.08 87.74L236.04 90.07L234.93 92.32L232.81 94.33L188.48 126.06L185.50 127.70L181.86 128.85L177.82 129.43L173.64 129.41L169.62 128.79L166.02 127.60L25.75 66.32L22.83 64.66L20.77 62.62L19.72 60.36Z" fill="#e6e6e6" stroke="#4a4a4a" stroke-width=".6" vector-effect="non-scaling-stroke" stroke-linejoin="round"/><path d="M177.82 111.19L177.82 129.43" stroke="#4a4a4a" stroke-width=".6" vector-effect="non-scaling-stroke"/><path d="M230.05 63.54L232.98 65.20L235.03 67.24L236.08 69.50L236.04 71.83L234.93 74.08L232.81 76.10L188.48 107.82L185.50 109.46L181.86 110.61L177.82 111.19L173.64 111.17L169.62 110.55L166.02 109.36L25.75 48.08L22.83 46.42L20.77 44.39L19.72 42.12L19.76 39.79L20.88 37.54L23.00 35.53L67.32 3.80L70.30 2.16L73.94 1.01L77.98 0.43L82.16 0.45L86.18 1.07L89.78 2.26Z" fill="#f3f3f3" stroke="#4a4a4a" stroke-width=".6" vector-effect="non-scaling-stroke"/><circle cx="78.52" cy="2.87" r="1.7" fill="#1a1a1a"/><circle cx="231.71" cy="69.80" r="1.7" fill="#1a1a1a"/><circle cx="177.28" cy="108.75" r="1.7" fill="#1a1a1a"/><circle cx="24.10" cy="41.82" r="1.7" fill="#1a1a1a"/><path d="M-380.08 -68.26L-380.05 -70.31L-379.07 -72.28L-377.22 -74.04L-362.44 -84.61L-359.83 -86.05L-356.65 -87.05L-353.11 -87.56L-349.46 -87.55L-345.94 -87.00L-342.79 -85.96L145.78 127.49L148.34 128.94L150.14 130.72L151.05 132.70L151.05 150.94L151.02 152.98L150.05 154.95L148.19 156.71L133.41 167.29L130.81 168.72L127.63 169.73L124.09 170.24L120.43 170.22L116.91 169.68L113.76 168.64L-374.80 -44.81L-377.37 -46.27L-379.16 -48.05L-380.08 -50.03Z" fill="#e6e6e6" stroke="#4a4a4a" stroke-width=".6" vector-effect="non-scaling-stroke" stroke-linejoin="round"/><path d="M124.09 152.00L124.09 170.24" stroke="#4a4a4a" stroke-width=".6" vector-effect="non-scaling-stroke"/><path d="M145.78 127.49L148.34 128.94L150.14 130.72L151.05 132.70L151.02 134.75L150.05 136.71L148.19 138.48L133.41 149.05L130.81 150.48L127.63 151.49L124.09 152.00L120.43 151.98L116.91 151.44L113.76 150.40L-374.80 -63.05L-377.37 -64.51L-379.16 -66.29L-380.08 -68.26L-380.05 -70.31L-379.07 -72.28L-377.22 -74.04L-362.44 -84.61L-359.83 -86.05L-356.65 -87.05L-353.11 -87.56L-349.46 -87.55L-345.94 -87.00L-342.79 -85.96Z" fill="#f3f3f3" stroke="#4a4a4a" stroke-width=".6" vector-effect="non-scaling-stroke"/><circle cx="-352.58" cy="-85.13" r="1.7" fill="#1a1a1a"/><circle cx="146.70" cy="133.00" r="1.7" fill="#1a1a1a"/><circle cx="123.55" cy="149.57" r="1.7" fill="#1a1a1a"/><circle cx="-375.73" cy="-68.56" r="1.7" fill="#1a1a1a"/><path d="M-204.44 -135.25L-204.35 -135.20L-204.28 -135.14L-204.25 -135.07L-204.25 -134.99L-204.29 -134.92L-204.35 -134.86L-204.97 -134.42L-205.06 -134.37L-205.18 -134.33L-205.30 -134.31L-205.43 -134.31L-205.56 -134.33L-205.67 -134.37L-215.13 -138.50L-215.22 -138.55L-215.28 -138.62L-215.31 -138.69L-215.31 -138.76L-215.28 -138.83L-215.21 -138.89L-214.60 -139.34L-214.50 -139.39L-214.39 -139.42L-214.26 -139.44L-214.13 -139.44L-214.01 -139.42L-213.90 -139.38Z" fill="#c9c9c9"/><path d="M-208.38 -136.97L-208.29 -136.92L-208.22 -136.86L-208.19 -136.79L-208.19 -136.71L-208.23 -136.64L-208.29 -136.58L-229.84 -121.16L-229.93 -121.11L-230.05 -121.07L-230.17 -121.05L-230.30 -121.05L-230.43 -121.07L-230.54 -121.11L-231.33 -121.45L-231.42 -121.51L-231.49 -121.57L-231.52 -121.64L-231.52 -121.71L-231.48 -121.78L-231.42 -121.85L-209.87 -137.27L-209.78 -137.32L-209.66 -137.36L-209.54 -137.37L-209.41 -137.37L-209.28 -137.35L-209.17 -137.32Z" fill="#c9c9c9"/><path d="M-160.26 -140.08L-157.33 -138.41L-155.28 -136.38L-154.23 -134.12L-154.27 -131.78L-155.38 -129.53L-157.50 -127.52L-158.73 -126.64L-161.71 -125.00L-165.35 -123.85L-169.39 -123.27L-173.57 -123.29L-177.59 -123.91L-181.19 -125.10L-234.78 -148.51L-237.71 -150.17L-239.76 -152.21L-240.81 -154.47L-240.77 -156.80L-239.65 -159.05L-237.54 -161.07L-236.30 -161.95L-233.32 -163.58L-229.69 -164.73L-225.65 -165.32L-221.47 -165.30L-217.44 -164.67L-213.84 -163.49Z" fill="none" stroke="#e2552d" stroke-width="0.9" vector-effect="non-scaling-stroke"/><path d="M-225.37 -120.27L-225.28 -120.22L-225.22 -120.15L-225.18 -120.08L-225.18 -120.01L-225.22 -119.94L-225.29 -119.88L-225.90 -119.44L-225.99 -119.39L-226.11 -119.35L-226.23 -119.33L-226.36 -119.33L-226.49 -119.35L-226.60 -119.39L-236.06 -123.52L-236.15 -123.57L-236.21 -123.64L-236.25 -123.71L-236.25 -123.78L-236.21 -123.85L-236.15 -123.91L-235.53 -124.35L-235.44 -124.40L-235.32 -124.44L-235.20 -124.46L-235.07 -124.46L-234.94 -124.44L-234.83 -124.40Z" fill="#c9c9c9"/><path d="M-196.46 -123.25L-195.36 -122.63L-194.59 -121.86L-194.20 -121.02L-194.21 -120.14L-194.63 -119.30L-195.43 -118.54L-195.43 -118.54L-196.54 -117.93L-197.91 -117.50L-199.42 -117.28L-200.99 -117.28L-202.50 -117.52L-203.85 -117.96L-214.88 -122.78L-215.98 -123.41L-216.75 -124.17L-217.14 -125.02L-217.13 -125.89L-216.71 -126.74L-215.91 -127.49L-215.91 -127.49L-214.80 -128.11L-213.43 -128.54L-211.92 -128.76L-210.35 -128.75L-208.84 -128.52L-207.49 -128.07Z" fill="#e2552d"/><path d="M-245.86 -135.28L-244.21 -134.34L-243.06 -133.20L-242.47 -131.92L-242.49 -130.61L-243.12 -129.34L-244.31 -128.21L-251.70 -122.92L-253.37 -122.00L-255.42 -121.36L-257.69 -121.03L-260.04 -121.04L-262.31 -121.39L-264.33 -122.06L-273.79 -126.19L-275.43 -127.13L-276.59 -128.27L-277.18 -129.54L-277.16 -130.86L-276.53 -132.12L-275.34 -133.25L-267.95 -138.54L-266.27 -139.46L-264.23 -140.11L-261.95 -140.44L-259.60 -140.43L-257.34 -140.08L-255.32 -139.41Z" fill="#f6f6f6" stroke="#9a9a9a" stroke-width="0.6" vector-effect="non-scaling-stroke"/><path d="M134.16 -88.47L134.89 -88.05L135.41 -87.54L135.67 -86.98L135.66 -86.39L135.38 -85.83L134.85 -85.33L134.85 -85.33L134.11 -84.92L133.20 -84.63L132.19 -84.48L131.14 -84.49L130.14 -84.64L129.24 -84.94L88.26 -102.84L87.53 -103.26L87.01 -103.77L86.75 -104.33L86.76 -104.92L87.04 -105.48L87.57 -105.98L87.57 -105.98L88.32 -106.39L89.23 -106.68L90.24 -106.83L91.28 -106.82L92.29 -106.66L93.19 -106.37Z" fill="#c9c9c9"/><path d="M-204.34 -87.33L-203.70 -86.97L-203.25 -86.53L-203.02 -86.03L-203.03 -85.52L-203.28 -85.03L-203.74 -84.59L-203.74 -84.59L-204.39 -84.23L-205.19 -83.98L-206.07 -83.85L-206.99 -83.85L-207.87 -83.99L-208.65 -84.25L-289.82 -119.71L-290.46 -120.07L-290.91 -120.52L-291.14 -121.01L-291.13 -121.52L-290.88 -122.02L-290.42 -122.46L-290.42 -122.46L-289.77 -122.82L-288.97 -123.07L-288.09 -123.19L-287.18 -123.19L-286.30 -123.05L-285.51 -122.79Z" fill="#c9c9c9"/><path d="M114.76 -82.75L115.31 -82.44L115.69 -82.06L115.89 -81.63L115.88 -81.20L115.67 -80.77L115.27 -80.40L115.27 -80.40L114.72 -80.09L114.03 -79.87L113.28 -79.76L112.49 -79.77L111.74 -79.89L111.06 -80.11L76.39 -95.26L75.84 -95.57L75.46 -95.95L75.26 -96.37L75.27 -96.81L75.48 -97.23L75.87 -97.61L75.87 -97.61L76.43 -97.92L77.11 -98.13L77.87 -98.24L78.66 -98.24L79.41 -98.12L80.08 -97.90Z" fill="#f6f6f6"/><path d="M103.68 -74.82L104.22 -74.51L104.61 -74.13L104.81 -73.70L104.80 -73.26L104.59 -72.84L104.19 -72.47L104.19 -72.47L103.63 -72.16L102.95 -71.94L102.19 -71.83L101.41 -71.84L100.66 -71.95L99.98 -72.18L65.31 -87.32L64.76 -87.64L64.37 -88.02L64.18 -88.44L64.19 -88.88L64.39 -89.30L64.79 -89.68L64.79 -89.68L65.35 -89.99L66.03 -90.20L66.79 -90.31L67.57 -90.31L68.33 -90.19L69.00 -89.97Z" fill="#f6f6f6"/><path d="M92.59 -66.89L93.14 -66.58L93.53 -66.19L93.72 -65.77L93.72 -65.33L93.51 -64.91L93.11 -64.53L93.11 -64.53L92.55 -64.23L91.87 -64.01L91.11 -63.90L90.33 -63.91L89.57 -64.02L88.90 -64.24L54.23 -79.39L53.68 -79.70L53.29 -80.09L53.10 -80.51L53.10 -80.95L53.31 -81.37L53.71 -81.75L53.71 -81.75L54.27 -82.05L54.95 -82.27L55.71 -82.38L56.49 -82.38L57.25 -82.26L57.92 -82.04Z" fill="#f6f6f6"/><path d="M-181.89 -66.17L-181.43 -65.91L-181.11 -65.59L-180.94 -65.24L-180.95 -64.87L-181.12 -64.52L-181.45 -64.21L-181.45 -64.21L-181.92 -63.95L-182.49 -63.77L-183.12 -63.68L-183.77 -63.68L-184.40 -63.78L-184.96 -63.97L-299.23 -113.89L-299.68 -114.15L-300.00 -114.46L-300.17 -114.82L-300.16 -115.18L-299.99 -115.53L-299.66 -115.85L-299.66 -115.85L-299.19 -116.10L-298.62 -116.28L-297.99 -116.37L-297.34 -116.37L-296.71 -116.27L-296.15 -116.09Z" fill="#dadada"/><path d="M36.45 -63.03L37.00 -62.72L37.38 -62.34L37.58 -61.92L37.57 -61.48L37.36 -61.06L36.96 -60.68L34.50 -58.92L33.94 -58.61L33.26 -58.39L32.50 -58.28L31.72 -58.29L30.96 -58.40L30.29 -58.63L27.14 -60.00L26.59 -60.32L26.20 -60.70L26.01 -61.12L26.01 -61.56L26.22 -61.98L26.62 -62.36L29.08 -64.12L29.64 -64.43L30.32 -64.64L31.08 -64.75L31.87 -64.75L32.62 -64.63L33.29 -64.41Z" fill="#c9c9c9"/><path d="M81.51 -58.96L82.06 -58.64L82.45 -58.26L82.64 -57.84L82.64 -57.40L82.43 -56.98L82.03 -56.60L82.03 -56.60L81.47 -56.29L80.79 -56.08L80.03 -55.97L79.25 -55.97L78.49 -56.09L77.82 -56.31L43.15 -71.46L42.60 -71.77L42.21 -72.15L42.01 -72.58L42.02 -73.02L42.23 -73.44L42.63 -73.82L42.63 -73.82L43.19 -74.12L43.87 -74.34L44.63 -74.45L45.41 -74.44L46.16 -74.33L46.84 -74.10Z" fill="#f6f6f6"/><path d="M183.76 -54.03L184.67 -53.50L185.32 -52.87L185.64 -52.16L185.63 -51.43L185.28 -50.73L184.62 -50.10L184.62 -50.10L183.69 -49.59L182.55 -49.23L181.29 -49.05L179.98 -49.05L178.73 -49.25L177.60 -49.62L130.32 -70.28L129.41 -70.80L128.76 -71.43L128.44 -72.14L128.45 -72.87L128.80 -73.57L129.46 -74.20L129.46 -74.20L130.39 -74.71L131.53 -75.07L132.79 -75.25L134.09 -75.25L135.35 -75.05L136.48 -74.68Z" fill="#f6f6f6" stroke="#9a9a9a" stroke-width="0.6" vector-effect="non-scaling-stroke"/><path d="M-74.07 -60.23L-72.43 -59.29L-71.27 -58.14L-70.68 -56.87L-70.70 -55.56L-71.33 -54.29L-72.52 -53.16L-79.91 -47.87L-81.59 -46.95L-83.63 -46.31L-85.91 -45.98L-88.26 -45.99L-90.52 -46.34L-92.54 -47.01L-102.00 -51.14L-103.65 -52.07L-104.80 -53.22L-105.39 -54.49L-105.37 -55.80L-104.74 -57.07L-103.55 -58.20L-96.16 -63.49L-94.49 -64.41L-92.44 -65.06L-90.17 -65.39L-87.82 -65.37L-85.55 -65.02L-83.53 -64.36Z" fill="#f6f6f6" stroke="#9a9a9a" stroke-width="0.6" vector-effect="non-scaling-stroke"/><path d="M-283.66 -44.64L-283.12 -44.33L-282.73 -43.95L-282.53 -43.52L-282.54 -43.08L-282.75 -42.66L-283.15 -42.28L-283.15 -42.28L-283.71 -41.98L-284.39 -41.76L-285.15 -41.65L-285.93 -41.66L-286.68 -41.77L-287.36 -42.00L-353.55 -70.91L-354.10 -71.23L-354.49 -71.61L-354.68 -72.03L-354.68 -72.47L-354.47 -72.89L-354.07 -73.27L-354.07 -73.27L-353.51 -73.58L-352.83 -73.79L-352.07 -73.90L-351.29 -73.90L-350.53 -73.78L-349.86 -73.56Z" fill="#c9c9c9"/><path d="M172.68 -46.09L173.59 -45.57L174.23 -44.94L174.56 -44.23L174.55 -43.50L174.20 -42.80L173.54 -42.17L173.54 -42.17L172.61 -41.66L171.47 -41.30L170.21 -41.12L168.90 -41.12L167.64 -41.32L166.52 -41.69L119.24 -62.34L118.32 -62.86L117.68 -63.50L117.35 -64.21L117.37 -64.94L117.71 -65.64L118.38 -66.27L118.38 -66.27L119.31 -66.78L120.44 -67.14L121.71 -67.32L123.01 -67.32L124.27 -67.12L125.40 -66.75Z" fill="#f6f6f6" stroke="#9a9a9a" stroke-width="0.6" vector-effect="non-scaling-stroke"/><path d="M87.22 -39.43L87.77 -39.12L88.16 -38.74L88.35 -38.31L88.35 -37.87L88.14 -37.45L87.74 -37.08L87.74 -37.08L87.18 -36.77L86.50 -36.55L85.74 -36.44L84.96 -36.45L84.20 -36.56L83.53 -36.79L40.98 -55.38L40.43 -55.69L40.04 -56.07L39.85 -56.49L39.85 -56.93L40.06 -57.35L40.46 -57.73L40.46 -57.73L41.02 -58.04L41.70 -58.25L42.46 -58.36L43.24 -58.36L44.00 -58.24L44.67 -58.02Z" fill="#f6f6f6"/><path d="M161.59 -38.16L162.51 -37.64L163.15 -37.01L163.48 -36.30L163.47 -35.57L163.12 -34.87L162.46 -34.24L162.46 -34.24L161.52 -33.73L160.39 -33.37L159.12 -33.18L157.82 -33.19L156.56 -33.39L155.44 -33.76L108.16 -54.41L107.24 -54.93L106.60 -55.57L106.27 -56.27L106.28 -57.00L106.63 -57.71L107.29 -58.34L107.29 -58.34L108.23 -58.85L109.36 -59.21L110.63 -59.39L111.93 -59.38L113.19 -59.19L114.31 -58.82Z" fill="#f6f6f6" stroke="#9a9a9a" stroke-width="0.6" vector-effect="non-scaling-stroke"/><path d="M150.51 -30.23L151.43 -29.71L152.07 -29.07L152.40 -28.37L152.38 -27.64L152.04 -26.93L151.37 -26.31L151.37 -26.31L150.44 -25.79L149.31 -25.43L148.04 -25.25L146.74 -25.26L145.48 -25.45L144.36 -25.82L97.07 -46.48L96.16 -47.00L95.52 -47.64L95.19 -48.34L95.20 -49.07L95.55 -49.78L96.21 -50.40L96.21 -50.40L97.14 -50.92L98.28 -51.28L99.54 -51.46L100.85 -51.45L102.11 -51.26L103.23 -50.89Z" fill="#f6f6f6" stroke="#9a9a9a" stroke-width="0.6" vector-effect="non-scaling-stroke"/><path d="M-32.56 -12.28L-31.92 -11.92L-31.47 -11.47L-31.24 -10.98L-31.25 -10.47L-31.49 -9.98L-31.95 -9.54L-31.95 -9.54L-32.61 -9.18L-33.40 -8.93L-34.29 -8.80L-35.20 -8.80L-36.08 -8.94L-36.87 -9.20L-118.03 -44.66L-118.67 -45.02L-119.12 -45.47L-119.35 -45.96L-119.34 -46.47L-119.10 -46.97L-118.63 -47.41L-118.63 -47.41L-117.98 -47.76L-117.19 -48.02L-116.30 -48.14L-115.39 -48.14L-114.51 -48.00L-113.72 -47.74Z" fill="#c9c9c9"/><path d="M-10.10 8.88L-9.64 9.14L-9.32 9.46L-9.16 9.81L-9.16 10.18L-9.34 10.53L-9.67 10.85L-9.67 10.85L-10.13 11.10L-10.70 11.28L-11.33 11.37L-11.99 11.37L-12.61 11.27L-13.18 11.09L-127.44 -38.83L-127.90 -39.09L-128.22 -39.41L-128.38 -39.76L-128.38 -40.13L-128.20 -40.48L-127.87 -40.80L-127.87 -40.80L-127.40 -41.05L-126.84 -41.23L-126.20 -41.32L-125.55 -41.32L-124.92 -41.22L-124.36 -41.04Z" fill="#dadada"/><path d="M97.71 14.83L99.36 15.76L100.52 16.91L101.10 18.18L101.08 19.49L100.46 20.76L99.26 21.89L91.88 27.18L90.20 28.10L88.16 28.75L85.88 29.08L83.53 29.06L81.27 28.71L79.24 28.05L69.79 23.91L68.14 22.98L66.98 21.83L66.39 20.56L66.42 19.25L67.04 17.98L68.24 16.85L75.62 11.56L77.30 10.64L79.34 9.99L81.62 9.67L83.97 9.68L86.23 10.03L88.26 10.69Z" fill="#f6f6f6" stroke="#9a9a9a" stroke-width="0.6" vector-effect="non-scaling-stroke"/><path d="M320.13 -7.22L321.96 -6.18L323.25 -4.91L323.90 -3.49L323.88 -2.03L323.18 -0.63L321.86 0.63L265.22 41.17L263.35 42.19L261.08 42.91L258.55 43.28L255.94 43.27L253.43 42.88L251.18 42.14L151.89 -1.24L150.06 -2.28L148.77 -3.56L148.12 -4.97L148.14 -6.43L148.84 -7.83L150.17 -9.09L206.81 -49.63L208.67 -50.66L210.94 -51.37L213.47 -51.74L216.08 -51.73L218.59 -51.34L220.84 -50.60Z" fill="#f6f6f6" stroke="#9a9a9a" stroke-width="0.6" vector-effect="non-scaling-stroke"/><path d="M139.23 62.77L139.87 63.13L140.32 63.58L140.55 64.07L140.54 64.58L140.30 65.08L139.83 65.52L139.83 65.52L139.18 65.87L138.39 66.13L137.50 66.25L136.59 66.25L135.71 66.11L134.92 65.85L53.75 30.39L53.11 30.03L52.66 29.58L52.44 29.09L52.44 28.58L52.69 28.09L53.15 27.65L53.15 27.65L53.80 27.29L54.60 27.04L55.48 26.91L56.40 26.91L57.28 27.05L58.06 27.31Z" fill="#c9c9c9"/><path d="M-36.45 64.07L-35.99 64.34L-35.67 64.65L-35.51 65.01L-35.51 65.37L-35.69 65.72L-36.02 66.04L-36.02 66.04L-36.49 66.29L-37.05 66.47L-37.69 66.56L-38.34 66.56L-38.97 66.46L-39.53 66.28L-67.11 54.23L-67.57 53.97L-67.89 53.65L-68.05 53.30L-68.05 52.93L-67.87 52.58L-67.54 52.27L-67.54 52.27L-67.07 52.01L-66.51 51.83L-65.87 51.74L-65.22 51.74L-64.59 51.84L-64.03 52.03Z" fill="#dadada"/><path d="M161.69 83.93L162.14 84.19L162.47 84.51L162.63 84.87L162.62 85.23L162.45 85.58L162.12 85.90L162.12 85.90L161.65 86.15L161.08 86.33L160.45 86.42L159.80 86.42L159.17 86.32L158.61 86.14L44.35 36.22L43.89 35.96L43.57 35.64L43.41 35.29L43.41 34.92L43.59 34.57L43.92 34.26L43.92 34.26L44.38 34.00L44.95 33.82L45.58 33.73L46.23 33.73L46.86 33.83L47.43 34.01Z" fill="#dadada"/><path d="M10.83 84.73L11.29 84.99L11.61 85.31L11.77 85.66L11.77 86.03L11.59 86.38L11.26 86.69L11.26 86.69L10.80 86.95L10.23 87.13L9.60 87.22L8.94 87.22L8.31 87.12L7.75 86.93L-19.83 74.89L-20.29 74.62L-20.61 74.31L-20.77 73.95L-20.77 73.59L-20.59 73.24L-20.26 72.92L-20.26 72.92L-19.79 72.67L-19.23 72.49L-18.59 72.40L-17.94 72.40L-17.31 72.50L-16.75 72.68Z" fill="#dadada"/><path d="M58.11 105.39L58.57 105.65L58.89 105.97L59.05 106.32L59.05 106.68L58.87 107.04L58.54 107.35L58.54 107.35L58.08 107.61L57.51 107.79L56.88 107.88L56.22 107.87L55.59 107.78L55.03 107.59L27.45 95.54L26.99 95.28L26.67 94.96L26.51 94.61L26.52 94.25L26.69 93.89L27.02 93.58L27.02 93.58L27.49 93.32L28.05 93.14L28.69 93.05L29.34 93.06L29.97 93.15L30.53 93.34Z" fill="#dadada"/><path d="M105.39 126.04L105.85 126.30L106.17 126.62L106.33 126.98L106.33 127.34L106.15 127.69L105.82 128.01L105.82 128.01L105.36 128.26L104.79 128.44L104.16 128.53L103.50 128.53L102.88 128.43L102.31 128.25L74.73 116.20L74.28 115.94L73.95 115.62L73.79 115.27L73.80 114.90L73.97 114.55L74.30 114.24L74.30 114.24L74.77 113.98L75.34 113.80L75.97 113.71L76.62 113.71L77.25 113.81L77.81 113.99Z" fill="#dadada"/><path d="M-128.05 -61.93L-127.96 -61.88L-127.90 -61.81L-127.87 -61.74L-127.87 -61.67L-127.90 -61.60L-127.97 -61.54L-135.36 -56.25L-135.45 -56.20L-135.56 -56.16L-135.69 -56.14L-135.82 -56.14L-135.94 -56.16L-136.06 -56.20L-136.85 -56.55L-136.94 -56.60L-137.00 -56.66L-137.03 -56.73L-137.03 -56.80L-137.00 -56.87L-136.93 -56.94L-129.54 -62.23L-129.45 -62.28L-129.34 -62.31L-129.21 -62.33L-129.08 -62.33L-128.95 -62.31L-128.84 -62.27Z" fill="#c9c9c9"/><path d="M-112.84 -51.02L-112.74 -50.97L-112.68 -50.91L-112.65 -50.84L-112.65 -50.76L-112.68 -50.69L-112.75 -50.63L-113.36 -50.19L-113.46 -50.14L-113.57 -50.10L-113.70 -50.08L-113.83 -50.09L-113.95 -50.10L-114.07 -50.14L-133.77 -58.75L-133.86 -58.80L-133.92 -58.86L-133.96 -58.93L-133.95 -59.01L-133.92 -59.08L-133.85 -59.14L-133.24 -59.58L-133.14 -59.63L-133.03 -59.67L-132.90 -59.69L-132.77 -59.69L-132.65 -59.67L-132.54 -59.63Z" fill="#c9c9c9"/><path d="M-109.14 -53.67L-109.05 -53.61L-108.99 -53.55L-108.95 -53.48L-108.95 -53.41L-108.99 -53.34L-109.06 -53.27L-116.44 -47.99L-116.54 -47.94L-116.65 -47.90L-116.78 -47.88L-116.91 -47.88L-117.03 -47.90L-117.14 -47.94L-117.93 -48.28L-118.02 -48.33L-118.09 -48.40L-118.12 -48.47L-118.12 -48.54L-118.09 -48.61L-118.02 -48.68L-110.63 -53.96L-110.54 -54.01L-110.42 -54.05L-110.30 -54.07L-110.17 -54.07L-110.04 -54.05L-109.93 -54.01Z" fill="#c9c9c9"/><path d="M-117.71 -48.90L-116.61 -48.27L-115.84 -47.51L-115.45 -46.66L-115.46 -45.78L-115.88 -44.94L-116.68 -44.19L-116.68 -44.19L-117.79 -43.57L-119.16 -43.14L-120.67 -42.92L-122.24 -42.93L-123.75 -43.16L-125.10 -43.61L-136.13 -48.43L-137.23 -49.05L-138.00 -49.81L-138.39 -50.66L-138.38 -51.54L-137.96 -52.38L-137.17 -53.14L-137.17 -53.14L-136.05 -53.75L-134.68 -54.18L-133.17 -54.40L-131.60 -54.39L-130.09 -54.16L-128.74 -53.72Z" fill="#c9c9c9"/><path d="M-110.27 -89.64L-106.80 -87.66L-104.35 -85.25L-103.11 -82.56L-103.16 -79.79L-104.48 -77.12L-107.00 -74.73L-152.56 -42.12L-156.09 -40.18L-160.41 -38.81L-165.21 -38.12L-170.17 -38.14L-174.95 -38.88L-179.23 -40.29L-321.07 -102.26L-324.55 -104.24L-326.99 -106.65L-328.23 -109.34L-328.19 -112.11L-326.86 -114.78L-324.34 -117.17L-278.78 -149.78L-275.25 -151.72L-270.93 -153.09L-266.13 -153.78L-261.17 -153.76L-256.39 -153.02L-252.11 -151.61Z" fill="none" stroke="#e2552d" stroke-width="0.9" vector-effect="non-scaling-stroke"/><path d="M268.22 -22.21L268.68 -21.95L269.00 -21.63L269.16 -21.28L269.16 -20.91L268.98 -20.56L268.65 -20.25L268.65 -20.25L268.19 -19.99L267.62 -19.81L266.99 -19.72L266.34 -19.72L265.71 -19.82L265.14 -20.01L213.92 -42.38L213.47 -42.65L213.14 -42.96L212.98 -43.32L212.99 -43.68L213.16 -44.03L213.49 -44.35L213.49 -44.35L213.96 -44.60L214.53 -44.78L215.16 -44.87L215.81 -44.87L216.44 -44.77L217.00 -44.59Z" fill="#e2552d"/><path d="M229.49 -7.20L229.94 -6.94L230.26 -6.62L230.43 -6.27L230.42 -5.90L230.25 -5.55L229.92 -5.24L229.92 -5.24L229.45 -4.98L228.88 -4.80L228.25 -4.71L227.60 -4.71L226.97 -4.81L226.41 -5.00L186.22 -22.56L185.76 -22.82L185.44 -23.13L185.28 -23.49L185.28 -23.85L185.46 -24.20L185.79 -24.52L185.79 -24.52L186.25 -24.77L186.82 -24.95L187.45 -25.04L188.11 -25.04L188.73 -24.94L189.30 -24.76Z" fill="#c9c9c9"/><path d="M292.08 -1.14L292.54 -0.88L292.86 -0.56L293.03 -0.21L293.02 0.16L292.85 0.51L292.52 0.82L292.52 0.82L292.05 1.08L291.48 1.26L290.85 1.35L290.20 1.34L289.57 1.25L289.01 1.06L214.14 -31.64L213.69 -31.90L213.37 -32.22L213.20 -32.58L213.21 -32.94L213.38 -33.29L213.71 -33.61L213.71 -33.61L214.18 -33.86L214.75 -34.04L215.38 -34.13L216.03 -34.13L216.66 -34.03L217.22 -33.85Z" fill="#dadada"/><path d="M270.24 -0.04L270.70 0.22L271.02 0.54L271.18 0.89L271.18 1.26L271.00 1.61L270.67 1.92L270.67 1.92L270.21 2.18L269.64 2.36L269.01 2.45L268.35 2.45L267.73 2.35L267.16 2.16L204.91 -25.03L204.45 -25.29L204.13 -25.61L203.97 -25.97L203.97 -26.33L204.15 -26.68L204.48 -27.00L204.48 -27.00L204.94 -27.25L205.51 -27.43L206.14 -27.52L206.80 -27.52L207.43 -27.42L207.99 -27.24Z" fill="#dadada"/><path d="M217.32 8.77L217.78 9.03L218.10 9.35L218.26 9.70L218.26 10.07L218.08 10.42L217.75 10.74L217.75 10.74L217.29 10.99L216.72 11.17L216.09 11.26L215.43 11.26L214.80 11.16L214.24 10.98L167.75 -9.34L167.29 -9.60L166.97 -9.91L166.81 -10.27L166.81 -10.63L166.99 -10.98L167.32 -11.30L167.32 -11.30L167.78 -11.55L168.35 -11.73L168.98 -11.83L169.64 -11.82L170.27 -11.72L170.83 -11.54Z" fill="#dadada"/><path d="M272.26 22.13L272.72 22.39L273.04 22.71L273.20 23.06L273.20 23.43L273.02 23.78L272.69 24.09L272.69 24.09L272.22 24.35L271.66 24.53L271.03 24.62L270.37 24.62L269.74 24.52L269.18 24.33L186.44 -11.81L185.98 -12.07L185.66 -12.39L185.50 -12.75L185.50 -13.11L185.68 -13.46L186.01 -13.78L186.01 -13.78L186.47 -14.03L187.04 -14.21L187.67 -14.30L188.33 -14.30L188.96 -14.20L189.52 -14.02Z" fill="#dadada"/><path d="M-262.26 -159.71L-262.08 -159.61L-261.95 -159.48L-261.88 -159.34L-261.89 -159.19L-261.96 -159.05L-262.09 -158.93L-265.78 -156.28L-265.97 -156.18L-266.20 -156.11L-266.45 -156.07L-266.71 -156.07L-266.96 -156.11L-267.19 -156.19L-271.91 -158.25L-272.10 -158.36L-272.22 -158.48L-272.29 -158.62L-272.29 -158.77L-272.22 -158.91L-272.09 -159.04L-268.39 -161.68L-268.21 -161.78L-267.98 -161.86L-267.73 -161.89L-267.46 -161.89L-267.21 -161.85L-266.99 -161.78Z" fill="#c9c9c9"/><path d="M-331.21 -110.36L-331.03 -110.25L-330.90 -110.13L-330.84 -109.99L-330.84 -109.84L-330.91 -109.70L-331.04 -109.57L-334.74 -106.93L-334.92 -106.83L-335.15 -106.76L-335.40 -106.72L-335.66 -106.72L-335.91 -106.76L-336.14 -106.83L-340.87 -108.90L-341.05 -109.00L-341.18 -109.13L-341.24 -109.27L-341.24 -109.42L-341.17 -109.56L-341.04 -109.68L-337.35 -112.33L-337.16 -112.43L-336.93 -112.50L-336.68 -112.54L-336.42 -112.54L-336.17 -112.50L-335.94 -112.42Z" fill="#c9c9c9"/><path d="M-90.47 -84.66L-90.29 -84.56L-90.16 -84.43L-90.10 -84.29L-90.10 -84.14L-90.17 -84.00L-90.30 -83.88L-94.00 -81.23L-94.18 -81.13L-94.41 -81.06L-94.66 -81.02L-94.92 -81.02L-95.17 -81.06L-95.40 -81.13L-100.13 -83.20L-100.31 -83.30L-100.44 -83.43L-100.50 -83.57L-100.50 -83.72L-100.43 -83.86L-100.30 -83.99L-96.61 -86.63L-96.42 -86.73L-96.19 -86.80L-95.94 -86.84L-95.68 -86.84L-95.43 -86.80L-95.20 -86.73Z" fill="#c9c9c9"/><path d="M-159.43 -35.31L-159.24 -35.20L-159.12 -35.08L-159.05 -34.93L-159.05 -34.79L-159.12 -34.65L-159.26 -34.52L-162.95 -31.88L-163.14 -31.78L-163.36 -31.70L-163.62 -31.67L-163.88 -31.67L-164.13 -31.71L-164.35 -31.78L-169.08 -33.85L-169.26 -33.95L-169.39 -34.08L-169.46 -34.22L-169.46 -34.37L-169.39 -34.51L-169.25 -34.63L-165.56 -37.28L-165.37 -37.38L-165.15 -37.45L-164.89 -37.49L-164.63 -37.49L-164.38 -37.45L-164.16 -37.37Z" fill="#c9c9c9"/></svg>