<svg xmlns="http://www.w3.org/2000/svg" viewBox="-435.34 -339.58 870.67 592.61" shape-rendering="geometricPrecision"><style>.l{stroke-width:1px}.l2{stroke-width:1.6px}@media (min-resolution:2dppx){.l{stroke-width:.5px}.l2{stroke-width:1px}}@media (min-resolution:3dppx){.l{stroke-width:.34px}.l2{stroke-width:.67px}}</style><g transform="matrix(0.707107,0.408248,-0.707107,0.408248,-77.7817,-249.0315)"><rect x="0" y="0" width="720" height="500" rx="26" fill="#d9d9dc" stroke="#a4a4a8" class="l" vector-effect="non-scaling-stroke"/></g><path d="M-420.566 -74.301L420.566 15.513L420.566 44.907L-420.566 -44.907Z" fill="#d9d9dc"/><path d="M-420.566 -74.301L-420.566 -44.907M420.566 15.513L420.566 44.907" stroke="#a4a4a8" class="l" vector-effect="non-scaling-stroke"/><g transform="matrix(0.707107,0.408248,-0.707107,0.408248,-77.7817,-278.4253)"><rect x="0" y="0" width="720" height="500" rx="26" fill="#ececee" stroke="#a4a4a8" class="l" vector-effect="non-scaling-stroke"/></g><g transform="matrix(0.707107,0.408248,-0.707107,0.408248,-77.7817,-278.4253)"><circle cx="14" cy="14" r="2.6" fill="#8e8e93"/><circle cx="706" cy="14" r="2.6" fill="#8e8e93"/><circle cx="706" cy="486" r="2.6" fill="#8e8e93"/><circle cx="14" cy="486" r="2.6" fill="#8e8e93"/></g><g transform="matrix(0.707107,0.408248,-0.707107,0.408248,-77.7817,-278.4253)"><rect x="20" y="20" width="680" height="460" rx="18" fill="#f4f4f6" stroke="#c8c8cc" class="l" vector-effect="non-scaling-stroke"/></g><g transform="matrix(0.707107,0.408248,-0.707107,0.408248,-77.7817,-280.0583)"><rect x="394" y="40" width="70" height="56" rx="6" fill="#e1e1e4" stroke="#b8b8bc" class="l" vector-effect="non-scaling-stroke"/></g><path d="M135.421 -83.283L219.546 -77.567L219.546 -74.301L135.421 -80.017Z" fill="#e1e1e4"/><path d="M135.421 -83.283L135.421 -80.017M219.546 -77.567L219.546 -74.301" stroke="#b8b8bc" class="l" vector-effect="non-scaling-stroke"/><g transform="matrix(0.707107,0.408248,-0.707107,0.408248,-77.7817,-283.3243)"><rect x="394" y="40" width="70" height="56" rx="6" fill="#f3f3f5" stroke="#b8b8bc" class="l" vector-effect="non-scaling-stroke"/></g><g transform="matrix(0.707107,0.408248,-0.707107,0.408248,-77.7817,-280.0583)"><rect x="394" y="120" width="70" height="56" rx="6" fill="#e1e1e4" stroke="#b8b8bc" class="l" vector-effect="non-scaling-stroke"/></g><path d="M78.853 -50.623L162.978 -44.907L162.978 -41.641L78.853 -47.357Z" fill="#e1e1e4"/><path d="M78.853 -50.623L78.853 -47.357M162.978 -44.907L162.978 -41.641" stroke="#b8b8bc" class="l" vector-effect="non-scaling-stroke"/><g transform="matrix(0.707107,0.408248,-0.707107,0.408248,-77.7817,-283.3243)"><rect x="394" y="120" width="70" height="56" rx="6" fill="#f3f3f5" stroke="#b8b8bc" class="l" vector-effect="non-scaling-stroke"/></g><g transform="matrix(0.707107,0.408248,-0.707107,0.408248,-77.7817,-280.0583)"><rect x="40" y="40" width="330" height="240" rx="12" fill="#e1e1e4" stroke="#b8b8bc" class="l" vector-effect="non-scaling-stroke"/></g><path d="M-242.517 -159.217L150.593 -122.474L150.593 -112.677L-242.517 -149.419Z" fill="#e1e1e4"/><path d="M-242.517 -159.217L-242.517 -149.419M150.593 -122.474L150.593 -112.677" stroke="#b8b8bc" class="l" vector-effect="non-scaling-stroke"/><g transform="matrix(0.707107,0.408248,-0.707107,0.408248,-77.7817,-289.8563)"><rect x="40" y="40" width="330" height="240" rx="12" fill="#f3f3f5" stroke="#b8b8bc" class="l" vector-effect="non-scaling-stroke"/></g><g transform="matrix(0.707107,0.408248,-0.707107,0.408248,-77.7817,-280.0583)"><rect x="488" y="40" width="70" height="56" rx="6" fill="#e1e1e4" stroke="#b8b8bc" class="l" vector-effect="non-scaling-stroke"/></g><path d="M201.889 -44.907L286.014 -39.192L286.014 -35.926L201.889 -41.641Z" fill="#e1e1e4"/><path d="M201.889 -44.907L201.889 -41.641M286.014 -39.192L286.014 -35.926" stroke="#b8b8bc" class="l" vector-effect="non-scaling-stroke"/><g transform="matrix(0.707107,0.408248,-0.707107,0.408248,-77.7817,-283.3243)"><rect x="488" y="40" width="70" height="56" rx="6" fill="#f3f3f5" stroke="#b8b8bc" class="l" vector-effect="non-scaling-stroke"/></g><g transform="matrix(0.707107,0.408248,-0.707107,0.408248,-77.7817,-280.0583)"><rect x="488" y="120" width="70" height="56" rx="6" fill="#e1e1e4" stroke="#b8b8bc" class="l" vector-effect="non-scaling-stroke"/></g><path d="M145.321 -12.247L229.446 -6.532L229.446 -3.266L145.321 -8.981Z" fill="#e1e1e4"/><path d="M145.321 -12.247L145.321 -8.981M229.446 -6.532L229.446 -3.266" stroke="#b8b8bc" class="l" vector-effect="non-scaling-stroke"/><g transform="matrix(0.707107,0.408248,-0.707107,0.408248,-77.7817,-283.3243)"><rect x="488" y="120" width="70" height="56" rx="6" fill="#d3d3d7" stroke="#b8b8bc" class="l" vector-effect="non-scaling-stroke"/></g><g transform="matrix(0.707107,0.408248,-0.707107,0.408248,-77.7817,-280.0583)"><rect x="582" y="40" width="70" height="56" rx="6" fill="#e1e1e4" stroke="#b8b8bc" class="l" vector-effect="non-scaling-stroke"/></g><path d="M268.357 -6.532L352.482 -0.816L352.482 2.449L268.357 -3.266Z" fill="#e1e1e4"/><path d="M268.357 -6.532L268.357 -3.266M352.482 -0.816L352.482 2.449" stroke="#b8b8bc" class="l" vector-effect="non-scaling-stroke"/><g transform="matrix(0.707107,0.408248,-0.707107,0.408248,-77.7817,-283.3243)"><rect x="582" y="40" width="70" height="56" rx="6" fill="#f3f3f5" stroke="#b8b8bc" class="l" vector-effect="non-scaling-stroke"/></g><g transform="matrix(0.707107,0.408248,-0.707107,0.408248,-77.7817,-280.0583)"><rect x="40" y="304" width="330" height="152" rx="12" fill="#e1e1e4" stroke="#b8b8bc" class="l" vector-effect="non-scaling-stroke"/></g><path d="M-366.968 -87.365L-36.083 -14.697L-36.083 -4.899L-366.968 -77.567Z" fill="#e1e1e4"/><path d="M-366.968 -87.365L-366.968 -77.567M-36.083 -14.697L-36.083 -4.899" stroke="#b8b8bc" class="l" vector-effect="non-scaling-stroke"/><g transform="matrix(0.707107,0.408248,-0.707107,0.408248,-77.7817,-289.8563)"><rect x="40" y="304" width="330" height="152" rx="12" fill="#f3f3f5" stroke="#b8b8bc" class="l" vector-effect="non-scaling-stroke"/></g><g transform="matrix(0.707107,0.408248,-0.707107,0.408248,-77.7817,-280.0583)"><rect x="582" y="120" width="70" height="56" rx="6" fill="#e1e1e4" stroke="#b8b8bc" class="l" vector-effect="non-scaling-stroke"/></g><path d="M211.789 26.128L295.914 31.843L295.914 35.109L211.789 29.394Z" fill="#e1e1e4"/><path d="M211.789 26.128L211.789 29.394M295.914 31.843L295.914 35.109" stroke="#b8b8bc" class="l" vector-effect="non-scaling-stroke"/><g transform="matrix(0.707107,0.408248,-0.707107,0.408248,-77.7817,-283.3243)"><rect x="582" y="120" width="70" height="56" rx="6" fill="#f3f3f5" stroke="#b8b8bc" class="l" vector-effect="non-scaling-stroke"/></g><g transform="matrix(0.707107,0.408248,-0.707107,0.408248,-77.7817,-280.0583)"><rect x="394" y="200" width="286" height="80" rx="12" fill="#e1e1e4" stroke="#b8b8bc" class="l" vector-effect="non-scaling-stroke"/></g><path d="M7.799 -14.697L256.659 69.402L256.659 79.200L7.799 -4.899Z" fill="#e1e1e4"/><path d="M7.799 -14.697L7.799 -4.899M256.659 69.402L256.659 79.200" stroke="#b8b8bc" class="l" vector-effect="non-scaling-stroke"/><g transform="matrix(0.707107,0.408248,-0.707107,0.408248,-77.7817,-289.8563)"><rect x="394" y="200" width="286" height="80" rx="12" fill="#f3f3f5" stroke="#b8b8bc" class="l" vector-effect="non-scaling-stroke"/></g><g transform="matrix(0.707107,0.408248,-0.707107,0.408248,-77.7817,-280.0583)"><rect x="394" y="304" width="286" height="152" rx="12" fill="#e1e1e4" stroke="#b8b8bc" class="l" vector-effect="non-scaling-stroke"/></g><path d="M-116.652 57.155L183.120 111.860L183.120 121.658L-116.652 66.953Z" fill="#e1e1e4"/><path d="M-116.652 57.155L-116.652 66.953M183.120 111.860L183.120 121.658" stroke="#b8b8bc" class="l" vector-effect="non-scaling-stroke"/><g transform="matrix(0.707107,0.408248,-0.707107,0.408248,-77.7817,-289.8563)"><rect x="394" y="304" width="286" height="152" rx="12" fill="#f3f3f5" stroke="#b8b8bc" class="l" vector-effect="non-scaling-stroke"/></g><g transform="matrix(0.707107,0.408248,-0.707107,0.408248,-77.7817,-283.5693)"><rect x="404" y="66" width="30" height="5" rx="2.5" fill="#e2e2e5"/></g><g transform="matrix(0.707107,0.408248,-0.707107,0.408248,-77.7817,-283.5693)"><rect x="404" y="54" width="44" height="5" rx="2.5" fill="#d3d3d7"/></g><g transform="matrix(0.707107,0.408248,-0.707107,0.408248,-77.7817,-283.5693)"><rect x="404" y="146" width="30" height="5" rx="2.5" fill="#e2e2e5"/></g><g transform="matrix(0.707107,0.408248,-0.707107,0.408248,-77.7817,-283.5693)"><rect x="404" y="134" width="44" height="5" rx="2.5" fill="#d3d3d7"/></g><g transform="matrix(0.707107,0.408248,-0.707107,0.408248,-77.7817,-283.5693)"><rect x="498" y="66" width="30" height="5" rx="2.5" fill="#e2e2e5"/></g><g transform="matrix(0.707107,0.408248,-0.707107,0.408248,-77.7817,-283.5693)"><rect x="498" y="54" width="44" height="5" rx="2.5" fill="#d3d3d7"/></g><g transform="matrix(0.707107,0.408248,-0.707107,0.408248,-77.7817,-283.5693)"><rect x="498" y="146" width="30" height="5" rx="2.5" fill="#e2e2e5"/></g><g transform="matrix(0.707107,0.408248,-0.707107,0.408248,-77.7817,-283.5693)"><rect x="498" y="134" width="44" height="5" rx="2.5" fill="#d3d3d7"/></g><g transform="matrix(0.707107,0.408248,-0.707107,0.408248,-77.7817,-283.5693)"><rect x="592" y="66" width="30" height="5" rx="2.5" fill="#e2e2e5"/></g><g transform="matrix(0.707107,0.408248,-0.707107,0.408248,-77.7817,-283.5693)"><rect x="592" y="54" width="44" height="5" rx="2.5" fill="#d3d3d7"/></g><g transform="matrix(0.707107,0.408248,-0.707107,0.408248,-77.7817,-283.5693)"><rect x="592" y="146" width="30" height="5" rx="2.5" fill="#e2e2e5"/></g><g transform="matrix(0.707107,0.408248,-0.707107,0.408248,-77.7817,-283.5693)"><rect x="592" y="134" width="44" height="5" rx="2.5" fill="#d3d3d7"/></g><g transform="matrix(0.707107,0.408248,-0.707107,0.408248,-77.7817,-289.8563)"><rect x="74" y="210" width="34" height="34" rx="7" fill="#e1e1e4" stroke="#b8b8bc" class="l" vector-effect="non-scaling-stroke"/></g><path d="M-195.090 -177.996L-152.806 -177.996L-152.806 -160.033L-195.090 -160.033Z" fill="#e1e1e4"/><path d="M-195.090 -177.996L-195.090 -160.033M-152.806 -177.996L-152.806 -160.033" stroke="#b8b8bc" class="l" vector-effect="non-scaling-stroke"/><g transform="matrix(0.707107,0.408248,-0.707107,0.408248,-77.7817,-307.8192)"><rect x="74" y="210" width="34" height="34" rx="7" fill="#f3f3f5" stroke="#b8b8bc" class="l" vector-effect="non-scaling-stroke"/></g><g transform="matrix(0.707107,0.408248,-0.707107,0.408248,-77.7817,-289.8563)"><rect x="128" y="210" width="34" height="34" rx="7" fill="#e1e1e4" stroke="#b8b8bc" class="l" vector-effect="non-scaling-stroke"/></g><path d="M-156.907 -167.382L-114.622 -167.382L-114.622 -137.988L-156.907 -137.988Z" fill="#e1e1e4"/><path d="M-156.907 -167.382L-156.907 -137.988M-114.622 -167.382L-114.622 -137.988" stroke="#b8b8bc" class="l" vector-effect="non-scaling-stroke"/><g transform="matrix(0.707107,0.408248,-0.707107,0.408248,-77.7817,-319.2502)"><rect x="128" y="210" width="34" height="34" rx="7" fill="#f3f3f5" stroke="#b8b8bc" class="l" vector-effect="non-scaling-stroke"/></g><g transform="matrix(0.707107,0.408248,-0.707107,0.408248,-77.7817,-289.8563)"><rect x="182" y="210" width="34" height="34" rx="7" fill="#e1e1e4" stroke="#b8b8bc" class="l" vector-effect="non-scaling-stroke"/></g><path d="M-118.723 -138.804L-76.439 -138.804L-76.439 -115.943L-118.723 -115.943Z" fill="#e1e1e4"/><path d="M-118.723 -138.804L-118.723 -115.943M-76.439 -138.804L-76.439 -115.943" stroke="#b8b8bc" class="l" vector-effect="non-scaling-stroke"/><g transform="matrix(0.707107,0.408248,-0.707107,0.408248,-77.7817,-312.7182)"><rect x="182" y="210" width="34" height="34" rx="7" fill="#f3f3f5" stroke="#b8b8bc" class="l" vector-effect="non-scaling-stroke"/></g><g transform="matrix(0.707107,0.408248,-0.707107,0.408248,-77.7817,-289.8563)"><rect x="236" y="210" width="34" height="34" rx="7" fill="#e1e1e4" stroke="#b8b8bc" class="l" vector-effect="non-scaling-stroke"/></g><path d="M-80.539 -133.089L-38.255 -133.089L-38.255 -93.897L-80.539 -93.897Z" fill="#e1e1e4"/><path d="M-80.539 -133.089L-80.539 -93.897M-38.255 -133.089L-38.255 -93.897" stroke="#b8b8bc" class="l" vector-effect="non-scaling-stroke"/><g transform="matrix(0.707107,0.408248,-0.707107,0.408248,-77.7817,-329.0481)"><rect x="236" y="210" width="34" height="34" rx="7" fill="#d3d3d7" stroke="#b8b8bc" class="l" vector-effect="non-scaling-stroke"/></g><g transform="matrix(0.707107,0.408248,-0.707107,0.408248,-77.7817,-289.8563)"><rect x="290" y="210" width="34" height="34" rx="7" fill="#e1e1e4" stroke="#b8b8bc" class="l" vector-effect="non-scaling-stroke"/></g><path d="M-42.355 -104.512L-0.071 -104.512L-0.071 -71.852L-42.355 -71.852Z" fill="#e1e1e4"/><path d="M-42.355 -104.512L-42.355 -71.852M-0.071 -104.512L-0.071 -71.852" stroke="#b8b8bc" class="l" vector-effect="non-scaling-stroke"/><g transform="matrix(0.707107,0.408248,-0.707107,0.408248,-77.7817,-322.5161)"><rect x="290" y="210" width="34" height="34" rx="7" fill="#f3f3f5" stroke="#b8b8bc" class="l" vector-effect="non-scaling-stroke"/></g><g transform="matrix(0.707107,0.408248,-0.707107,0.408248,-77.7817,-289.8563)"><rect x="306" y="404" width="62" height="14" rx="7" fill="#e1e1e4" stroke="#b8b8bc" class="l" vector-effect="non-scaling-stroke" transform="rotate(45 337.0 411.0)"/></g><path d="M-137.108 22.838L-123.108 -4.875L-123.108 1.657L-137.108 29.370Z" fill="#e1e1e4"/><path d="M-137.108 22.838L-137.108 29.370M-123.108 -4.875L-123.108 1.657" stroke="#b8b8bc" class="l" vector-effect="non-scaling-stroke"/><g transform="matrix(0.707107,0.408248,-0.707107,0.408248,-77.7817,-296.3883)"><rect x="306" y="404" width="62" height="14" rx="7" fill="#f3f3f5" stroke="#b8b8bc" class="l" vector-effect="non-scaling-stroke" transform="rotate(45 337.0 411.0)"/></g><g transform="matrix(0.707107,0.408248,-0.707107,0.408248,-77.7817,-290.1012)"><rect x="60" y="72" width="56" height="5" rx="2.5" fill="#e2e2e5"/></g><g transform="matrix(0.707107,0.408248,-0.707107,0.408248,-77.7817,-290.1012)"><rect x="60" y="58" width="90" height="7" rx="3.5" fill="#d3d3d7"/></g><g transform="matrix(0.707107,0.408248,-0.707107,0.408248,-77.7817,-290.1012)"><rect x="60" y="336" width="120" height="5" rx="2.5" fill="#e2e2e5"/></g><g transform="matrix(0.707107,0.408248,-0.707107,0.408248,-77.7817,-290.1012)"><rect x="60" y="366" width="120" height="5" rx="2.5" fill="#e2e2e5"/></g><g transform="matrix(0.707107,0.408248,-0.707107,0.408248,-77.7817,-290.1012)"><rect x="60" y="396" width="120" height="5" rx="2.5" fill="#e2e2e5"/></g><g transform="matrix(0.707107,0.408248,-0.707107,0.408248,-77.7817,-290.1012)"><rect x="60" y="326" width="200" height="6" rx="3.0" fill="#e2e2e5"/></g><g transform="matrix(0.707107,0.408248,-0.707107,0.408248,-77.7817,-290.1012)"><rect x="60" y="426" width="120" height="5" rx="2.5" fill="#e2e2e5"/></g><g transform="matrix(0.707107,0.408248,-0.707107,0.408248,-77.7817,-290.1012)"><rect x="60" y="356" width="200" height="6" rx="3.0" fill="#e2e2e5"/></g><g transform="matrix(0.707107,0.408248,-0.707107,0.408248,-77.7817,-290.1012)"><rect x="60" y="386" width="200" height="6" rx="3.0" fill="#e2e2e5"/></g><g transform="matrix(0.707107,0.408248,-0.707107,0.408248,-77.7817,-290.1012)"><rect x="60" y="416" width="200" height="6" rx="3.0" fill="#e2e2e5"/></g><g transform="matrix(0.707107,0.408248,-0.707107,0.408248,-77.7817,-290.1012)"><rect x="470" y="246" width="90" height="5" rx="2.5" fill="#e2e2e5"/></g><g transform="matrix(0.707107,0.408248,-0.707107,0.408248,-77.7817,-290.1012)"><rect x="470" y="230" width="140" height="7" rx="3.5" fill="#d3d3d7"/></g><g transform="matrix(0.707107,0.408248,-0.707107,0.408248,-77.7817,-290.1012)"><rect x="438" y="330" width="180" height="7" rx="3.5" fill="#e2e2e5"/></g><g transform="matrix(0.707107,0.408248,-0.707107,0.408248,-77.7817,-290.1012)"><rect x="438" y="370" width="150" height="7" rx="3.5" fill="#d3d3d7"/></g><g transform="matrix(0.707107,0.408248,-0.707107,0.408248,-77.7817,-290.1012)"><rect x="438" y="410" width="120" height="7" rx="3.5" fill="#e2e2e5"/></g><g transform="matrix(0.707107,0.408248,-0.707107,0.408248,-77.7817,-290.2645)"><path d="M60 256L350 256" fill="none" stroke="#c8c8cc" class="l" stroke-linejoin="round" stroke-linecap="round" vector-effect="non-scaling-stroke"/></g><g transform="matrix(0.707107,0.408248,-0.707107,0.408248,-77.7817,-290.1829)"><circle cx="434" cy="240" r="20" fill="#d3d3d7" stroke="#c8c8cc" class="l" vector-effect="non-scaling-stroke"/></g><g transform="matrix(0.707107,0.408248,-0.707107,0.408248,-77.7817,-290.1829)"><circle cx="272" cy="372" r="46" fill="#f4f4f6" stroke="#c8c8cc" class="l2" vector-effect="non-scaling-stroke"/></g><g transform="matrix(0.707107,0.408248,-0.707107,0.408248,-77.7817,-290.1829)"><circle cx="420" cy="334" r="7" fill="#e2e2e5"/></g><g transform="matrix(0.707107,0.408248,-0.707107,0.408248,-77.7817,-290.1829)"><circle cx="420" cy="374" r="7" fill="#d3d3d7"/></g><g transform="matrix(0.707107,0.408248,-0.707107,0.408248,-77.7817,-290.1829)"><circle cx="420" cy="414" r="7" fill="#e2e2e5"/></g><g transform="matrix(0.707107,0.408248,-0.707107,0.408248,-77.7817,-290.3462)"><circle cx="272" cy="372" r="38" fill="none" stroke="#c8c8cc" class="l" vector-effect="non-scaling-stroke"/></g></svg>