<svg xmlns="http://www.w3.org/2000/svg" viewBox="-435.34 -339.58 870.67 592.61" shape-rendering="geometricPrecision"><style>.l{stroke-width:1px}.l2{stroke-width:1.5px}@media (min-resolution:2dppx){.l{stroke-width:.5px}.l2{stroke-width:1px}}@media (min-resolution:3dppx){.l{stroke-width:.34px}.l2{stroke-width:.67px}}</style><g transform="matrix(0.707107,0.408248,-0.707107,0.408248,-77.7817,-249.0315)"><rect x="0" y="0" width="720" height="500" rx="26" fill="#b996ff" stroke="#9747ff" class="l" vector-effect="non-scaling-stroke"/></g><path d="M-420.566 -74.301L420.566 15.513L420.566 44.907L-420.566 -44.907Z" fill="#b996ff"/><path d="M-420.566 -74.301L-420.566 -44.907M420.566 15.513L420.566 44.907" stroke="#9747ff" class="l" vector-effect="non-scaling-stroke"/><g transform="matrix(0.707107,0.408248,-0.707107,0.408248,-77.7817,-278.4253)"><rect x="0" y="0" width="720" height="500" rx="26" fill="#f1ebff" stroke="#9747ff" class="l" vector-effect="non-scaling-stroke"/></g><g transform="matrix(0.707107,0.408248,-0.707107,0.408248,-77.7817,-278.4253)"><circle cx="14" cy="14" r="2.6" fill="#7c3fe6"/><circle cx="706" cy="14" r="2.6" fill="#7c3fe6"/><circle cx="706" cy="486" r="2.6" fill="#7c3fe6"/><circle cx="14" cy="486" r="2.6" fill="#7c3fe6"/></g><g transform="matrix(0.707107,0.408248,-0.707107,0.408248,-77.7817,-278.4253)"><rect x="20" y="20" width="680" height="460" rx="20" fill="#d6c4ff" stroke="#9b55ff" class="l" vector-effect="non-scaling-stroke"/></g><path d="M-394.767 -75.934L394.767 13.880L394.767 15.513L-394.767 -74.301Z" fill="#d6c4ff"/><path d="M-394.767 -75.934L-394.767 -74.301M394.767 13.880L394.767 15.513" stroke="#9b55ff" class="l" vector-effect="non-scaling-stroke"/><g transform="matrix(0.707107,0.408248,-0.707107,0.408248,-77.7817,-280.0583)"><rect x="20" y="20" width="680" height="460" rx="20" fill="#e9e0ff" stroke="#9b55ff" class="l" vector-effect="non-scaling-stroke"/></g><g transform="matrix(0.707107,0.408248,-0.707107,0.408248,-77.7817,-280.8748)"><rect x="40" y="36" width="20" height="20" rx="10" fill="#efe8ff" stroke="#b58eff" class="l" vector-effect="non-scaling-stroke"/></g><g transform="matrix(0.707107,0.408248,-0.707107,0.408248,-77.7817,-280.8748)"><rect x="72" y="42" width="110" height="8" rx="4" fill="#b996ff"/></g><g transform="matrix(0.707107,0.408248,-0.707107,0.408248,-77.7817,-280.8748)"><rect x="420" y="34" width="170" height="24" rx="12" fill="#efe8ff" stroke="#b58eff" class="l" vector-effect="non-scaling-stroke"/></g><g transform="matrix(0.707107,0.408248,-0.707107,0.408248,-77.7817,-280.0583)"><rect x="40" y="356" width="196" height="100" rx="16" fill="#d6c4ff" stroke="#9b55ff" class="l" vector-effect="non-scaling-stroke"/></g><path d="M-365.311 -87.365L-169.262 -48.173L-169.262 -38.375L-365.311 -77.567Z" fill="#d6c4ff"/><path d="M-365.311 -87.365L-365.311 -77.567M-169.262 -48.173L-169.262 -38.375" stroke="#9b55ff" class="l" vector-effect="non-scaling-stroke"/><g transform="matrix(0.707107,0.408248,-0.707107,0.408248,-77.7817,-289.8563)"><rect x="40" y="356" width="196" height="100" rx="16" fill="#e9e0ff" stroke="#9b55ff" class="l" vector-effect="non-scaling-stroke"/></g><g transform="matrix(0.707107,0.408248,-0.707107,0.408248,-77.7817,-280.8748)"><rect x="606" y="34" width="74" height="24" rx="12" fill="#9747ff"/></g><g transform="matrix(0.707107,0.408248,-0.707107,0.408248,-77.7817,-280.0583)"><rect x="40" y="80" width="400" height="250" rx="16" fill="#d6c4ff" stroke="#9b55ff" class="l" vector-effect="non-scaling-stroke"/></g><path d="M-276.215 -138.804L170.149 -77.567L170.149 -67.769L-276.215 -129.006Z" fill="#d6c4ff"/><path d="M-276.215 -138.804L-276.215 -129.006M170.149 -77.567L170.149 -67.769" stroke="#9b55ff" class="l" vector-effect="non-scaling-stroke"/><g transform="matrix(0.707107,0.408248,-0.707107,0.408248,-77.7817,-289.8563)"><rect x="40" y="80" width="400" height="250" rx="16" fill="#e9e0ff" stroke="#9b55ff" class="l" vector-effect="non-scaling-stroke"/></g><g transform="matrix(0.707107,0.408248,-0.707107,0.408248,-77.7817,-280.0583)"><rect x="464" y="80" width="216" height="112" rx="16" fill="#d6c4ff" stroke="#9b55ff" class="l" vector-effect="non-scaling-stroke"/></g><path d="M121.179 -22.045L339.855 20.412L339.855 30.210L121.179 -12.247Z" fill="#d6c4ff"/><path d="M121.179 -22.045L121.179 -12.247M339.855 20.412L339.855 30.210" stroke="#9b55ff" class="l" vector-effect="non-scaling-stroke"/><g transform="matrix(0.707107,0.408248,-0.707107,0.408248,-77.7817,-289.8563)"><rect x="464" y="80" width="216" height="112" rx="16" fill="#e9e0ff" stroke="#9b55ff" class="l" vector-effect="non-scaling-stroke"/></g><g transform="matrix(0.707107,0.408248,-0.707107,0.408248,-77.7817,-280.0583)"><rect x="260" y="356" width="196" height="100" rx="16" fill="#d6c4ff" stroke="#9b55ff" class="l" vector-effect="non-scaling-stroke"/></g><path d="M-209.747 2.449L-13.698 41.641L-13.698 51.439L-209.747 12.247Z" fill="#d6c4ff"/><path d="M-209.747 2.449L-209.747 12.247M-13.698 41.641L-13.698 51.439" stroke="#9b55ff" class="l" vector-effect="non-scaling-stroke"/><g transform="matrix(0.707107,0.408248,-0.707107,0.408248,-77.7817,-289.8563)"><rect x="260" y="356" width="196" height="100" rx="16" fill="#e9e0ff" stroke="#9b55ff" class="l" vector-effect="non-scaling-stroke"/></g><g transform="matrix(0.707107,0.408248,-0.707107,0.408248,-77.7817,-280.0583)"><rect x="464" y="218" width="216" height="112" rx="16" fill="#d6c4ff" stroke="#9b55ff" class="l" vector-effect="non-scaling-stroke"/></g><path d="M23.598 34.293L242.274 76.751L242.274 86.549L23.598 44.091Z" fill="#d6c4ff"/><path d="M23.598 34.293L23.598 44.091M242.274 76.751L242.274 86.549" stroke="#9b55ff" class="l" vector-effect="non-scaling-stroke"/><g transform="matrix(0.707107,0.408248,-0.707107,0.408248,-77.7817,-289.8563)"><rect x="464" y="218" width="216" height="112" rx="16" fill="#e9e0ff" stroke="#9b55ff" class="l" vector-effect="non-scaling-stroke"/></g><g transform="matrix(0.707107,0.408248,-0.707107,0.408248,-77.7817,-280.0583)"><rect x="480" y="356" width="196" height="100" rx="16" fill="#d6c4ff" stroke="#9b55ff" class="l" vector-effect="non-scaling-stroke"/></g><path d="M-54.184 92.264L141.865 131.456L141.865 141.254L-54.184 102.062Z" fill="#d6c4ff"/><path d="M-54.184 92.264L-54.184 102.062M141.865 131.456L141.865 141.254" stroke="#9b55ff" class="l" vector-effect="non-scaling-stroke"/><g transform="matrix(0.707107,0.408248,-0.707107,0.408248,-77.7817,-289.8563)"><rect x="480" y="356" width="196" height="100" rx="16" fill="#e9e0ff" stroke="#9b55ff" class="l" vector-effect="non-scaling-stroke"/></g><g transform="matrix(0.707107,0.408248,-0.707107,0.408248,-77.7817,-290.6728)"><rect x="64" y="114" width="60" height="5" rx="2.5" fill="#d5c3ff"/></g><g transform="matrix(0.707107,0.408248,-0.707107,0.408248,-77.7817,-290.6728)"><rect x="64" y="100" width="96" height="6" rx="3" fill="#b996ff"/></g><g transform="matrix(0.707107,0.408248,-0.707107,0.408248,-77.7817,-289.8563)"><rect x="84" y="262" width="30" height="30" rx="6" fill="#d6c4ff" stroke="#9b55ff" class="l" vector-effect="non-scaling-stroke"/></g><path d="M-222.375 -151.052L-184.919 -151.052L-184.919 -136.355L-222.375 -136.355Z" fill="#d6c4ff"/><path d="M-222.375 -151.052L-222.375 -136.355M-184.919 -151.052L-184.919 -136.355" stroke="#9b55ff" class="l" vector-effect="non-scaling-stroke"/><g transform="matrix(0.707107,0.408248,-0.707107,0.408248,-77.7817,-304.5532)"><rect x="84" y="262" width="30" height="30" rx="6" fill="#e9e0ff" stroke="#9b55ff" class="l" vector-effect="non-scaling-stroke"/></g><g transform="matrix(0.707107,0.408248,-0.707107,0.408248,-77.7817,-289.8563)"><rect x="140" y="262" width="30" height="30" rx="6" fill="#d6c4ff" stroke="#9b55ff" class="l" vector-effect="non-scaling-stroke"/></g><path d="M-182.777 -137.988L-145.321 -137.988L-145.321 -113.493L-182.777 -113.493Z" fill="#d6c4ff"/><path d="M-182.777 -137.988L-182.777 -113.493M-145.321 -137.988L-145.321 -113.493" stroke="#9b55ff" class="l" vector-effect="non-scaling-stroke"/><g transform="matrix(0.707107,0.408248,-0.707107,0.408248,-77.7817,-314.3512)"><rect x="140" y="262" width="30" height="30" rx="6" fill="#e9e0ff" stroke="#9b55ff" class="l" vector-effect="non-scaling-stroke"/></g><g transform="matrix(0.707107,0.408248,-0.707107,0.408248,-77.7817,-289.8563)"><rect x="196" y="262" width="30" height="30" rx="6" fill="#d6c4ff" stroke="#9b55ff" class="l" vector-effect="non-scaling-stroke"/></g><path d="M-143.179 -110.227L-105.723 -110.227L-105.723 -90.631L-143.179 -90.631Z" fill="#d6c4ff"/><path d="M-143.179 -110.227L-143.179 -90.631M-105.723 -110.227L-105.723 -90.631" stroke="#9b55ff" class="l" vector-effect="non-scaling-stroke"/><g transform="matrix(0.707107,0.408248,-0.707107,0.408248,-77.7817,-309.4522)"><rect x="196" y="262" width="30" height="30" rx="6" fill="#e9e0ff" stroke="#9b55ff" class="l" vector-effect="non-scaling-stroke"/></g><g transform="matrix(0.707107,0.408248,-0.707107,0.408248,-77.7817,-290.6728)"><rect x="60" y="378" width="90" height="8" rx="4" fill="#b996ff"/></g><g transform="matrix(0.707107,0.408248,-0.707107,0.408248,-77.7817,-290.6728)"><rect x="60" y="424" width="48" height="16" rx="8" fill="#efe8ff" stroke="#b58eff" class="l" vector-effect="non-scaling-stroke"/></g><g transform="matrix(0.707107,0.408248,-0.707107,0.408248,-77.7817,-289.8563)"><rect x="252" y="262" width="30" height="30" rx="6" fill="#d6c4ff" stroke="#9b55ff" class="l" vector-effect="non-scaling-stroke"/></g><path d="M-103.581 -100.429L-66.125 -100.429L-66.125 -67.769L-103.581 -67.769Z" fill="#d6c4ff"/><path d="M-103.581 -100.429L-103.581 -67.769M-66.125 -100.429L-66.125 -67.769" stroke="#9b55ff" class="l" vector-effect="non-scaling-stroke"/><g transform="matrix(0.707107,0.408248,-0.707107,0.408248,-77.7817,-322.5161)"><rect x="252" y="262" width="30" height="30" rx="6" fill="#e9e0ff" stroke="#9b55ff" class="l" vector-effect="non-scaling-stroke"/></g><g transform="matrix(0.707107,0.408248,-0.707107,0.408248,-77.7817,-290.6728)"><rect x="60" y="394" width="120" height="6" rx="3" fill="#d5c3ff"/></g><g transform="matrix(0.707107,0.408248,-0.707107,0.408248,-77.7817,-290.6728)"><rect x="484" y="100" width="22" height="22" rx="7" fill="#efe8ff" stroke="#b58eff" class="l" vector-effect="non-scaling-stroke"/></g><g transform="matrix(0.707107,0.408248,-0.707107,0.408248,-77.7817,-289.8563)"><rect x="308" y="262" width="30" height="30" rx="6" fill="#d6c4ff" stroke="#9b55ff" class="l" vector-effect="non-scaling-stroke"/></g><path d="M-63.983 -72.668L-26.527 -72.668L-26.527 -44.907L-63.983 -44.907Z" fill="#d6c4ff"/><path d="M-63.983 -72.668L-63.983 -44.907M-26.527 -72.668L-26.527 -44.907" stroke="#9b55ff" class="l" vector-effect="non-scaling-stroke"/><g transform="matrix(0.707107,0.408248,-0.707107,0.408248,-77.7817,-317.6172)"><rect x="308" y="262" width="30" height="30" rx="6" fill="#e9e0ff" stroke="#9b55ff" class="l" vector-effect="non-scaling-stroke"/></g><g transform="matrix(0.707107,0.408248,-0.707107,0.408248,-77.7817,-289.8563)"><rect x="364" y="262" width="30" height="30" rx="6" fill="#b996ff" stroke="#9747ff" class="l" vector-effect="non-scaling-stroke"/></g><path d="M-24.385 -62.870L13.071 -62.870L13.071 -22.045L-24.385 -22.045Z" fill="#b996ff"/><path d="M-24.385 -62.870L-24.385 -22.045M13.071 -62.870L13.071 -22.045" stroke="#9747ff" class="l" vector-effect="non-scaling-stroke"/><g transform="matrix(0.707107,0.408248,-0.707107,0.408248,-77.7817,-330.6811)"><rect x="364" y="262" width="30" height="30" rx="6" fill="#9747ff" stroke="#9747ff" class="l" vector-effect="non-scaling-stroke"/></g><g transform="matrix(0.707107,0.408248,-0.707107,0.408248,-77.7817,-290.6728)"><rect x="484" y="156" width="70" height="6" rx="3" fill="#d5c3ff"/></g><g transform="matrix(0.707107,0.408248,-0.707107,0.408248,-77.7817,-290.6728)"><path d="M64 306.5L416 306.5" stroke="#b58eff" class="l" vector-effect="non-scaling-stroke"/></g><g transform="matrix(0.707107,0.408248,-0.707107,0.408248,-77.7817,-290.6728)"><rect x="484" y="140" width="110" height="8" rx="4" fill="#b996ff"/></g><g transform="matrix(0.707107,0.408248,-0.707107,0.408248,-77.7817,-290.6728)"><rect x="280" y="378" width="90" height="8" rx="4" fill="#b996ff"/></g><g transform="matrix(0.707107,0.408248,-0.707107,0.408248,-77.7817,-290.6728)"><rect x="484" y="238" width="22" height="22" rx="7" fill="#efe8ff" stroke="#b58eff" class="l" vector-effect="non-scaling-stroke"/></g><g transform="matrix(0.707107,0.408248,-0.707107,0.408248,-77.7817,-290.6728)"><rect x="280" y="424" width="48" height="16" rx="8" fill="#efe8ff" stroke="#b58eff" class="l" vector-effect="non-scaling-stroke"/></g><g transform="matrix(0.707107,0.408248,-0.707107,0.408248,-77.7817,-290.6728)"><rect x="280" y="394" width="120" height="6" rx="3" fill="#d5c3ff"/></g><g transform="matrix(0.707107,0.408248,-0.707107,0.408248,-77.7817,-290.6728)"><rect x="484" y="278" width="110" height="8" rx="4" fill="#b996ff"/></g><g transform="matrix(0.707107,0.408248,-0.707107,0.408248,-77.7817,-290.6728)"><rect x="484" y="306" width="176" height="6" rx="3" fill="#efe8ff" stroke="#b58eff" class="l" vector-effect="non-scaling-stroke"/></g><g transform="matrix(0.707107,0.408248,-0.707107,0.408248,-77.7817,-290.6728)"><rect x="500" y="378" width="90" height="8" rx="4" fill="#b996ff"/></g><g transform="matrix(0.707107,0.408248,-0.707107,0.408248,-77.7817,-290.6728)"><rect x="500" y="424" width="48" height="16" rx="8" fill="#efe8ff" stroke="#b58eff" class="l" vector-effect="non-scaling-stroke"/></g><g transform="matrix(0.707107,0.408248,-0.707107,0.408248,-77.7817,-290.6728)"><rect x="500" y="394" width="120" height="6" rx="3" fill="#d5c3ff"/></g><g transform="matrix(0.707107,0.408248,-0.707107,0.408248,-77.7817,-291.0810)"><rect x="484" y="306" width="112" height="6" rx="3" fill="#9747ff"/></g></svg>