<svg xmlns="http://www.w3.org/2000/svg" viewBox="-443.6 -289.8 887.2 529.9" shape-rendering="geometricPrecision"><g transform="matrix(0.78801,0.34427,-0.61566,0.44065,-129.769,-234.101)"><rect x="0" y="0" width="720" height="500" rx="26" fill="#151515"/></g><g transform="matrix(0.78801,0.34427,-0.61566,0.44065,-129.769,-235.391)"><rect x="0" y="0" width="720" height="500" rx="26" fill="#151515"/></g><g transform="matrix(0.78801,0.34427,-0.61566,0.44065,-129.769,-236.680)"><rect x="0" y="0" width="720" height="500" rx="26" fill="#151515"/></g><g transform="matrix(0.78801,0.34427,-0.61566,0.44065,-129.769,-237.970)"><rect x="0" y="0" width="720" height="500" rx="26" fill="#151515"/></g><g transform="matrix(0.78801,0.34427,-0.61566,0.44065,-129.769,-239.259)"><rect x="0" y="0" width="720" height="500" rx="26" fill="#151515"/></g><g transform="matrix(0.78801,0.34427,-0.61566,0.44065,-129.769,-240.549)"><rect x="0" y="0" width="720" height="500" rx="26" fill="#151515"/></g><g transform="matrix(0.78801,0.34427,-0.61566,0.44065,-129.769,-241.839)"><rect x="0" y="0" width="720" height="500" rx="26" fill="#151515"/></g><g transform="matrix(0.78801,0.34427,-0.61566,0.44065,-129.769,-243.128)"><rect x="0" y="0" width="720" height="500" rx="26" fill="#151515"/></g><g transform="matrix(0.78801,0.34427,-0.61566,0.44065,-129.769,-244.418)"><rect x="0" y="0" width="720" height="500" rx="26" fill="#151515"/></g><g transform="matrix(0.78801,0.34427,-0.61566,0.44065,-129.769,-245.708)"><rect x="0" y="0" width="720" height="500" rx="26" fill="#212121" stroke="#7c7c7c" stroke-width="1" vector-effect="non-scaling-stroke"/></g><g transform="matrix(0.78801,0.34427,-0.61566,0.44065,-129.769,-245.708)"><rect x="20" y="20" width="680" height="460" rx="20" fill="#151515"/></g><g transform="matrix(0.78801,0.34427,-0.61566,0.44065,-129.769,-246.537)"><rect x="20" y="20" width="680" height="460" rx="20" fill="#151515"/></g><g transform="matrix(0.78801,0.34427,-0.61566,0.44065,-129.769,-247.366)"><rect x="20" y="20" width="680" height="460" rx="20" fill="#2b2b2b" stroke="#7c7c7c" stroke-width="1" vector-effect="non-scaling-stroke"/></g><g transform="matrix(0.78801,0.34427,-0.61566,0.44065,-129.769,-248.195)"><rect x="34" y="35" width="10" height="10" rx="5" fill="#7c7c7c"/></g><g transform="matrix(0.78801,0.34427,-0.61566,0.44065,-129.769,-248.195)"><rect x="50" y="35" width="10" height="10" rx="5" fill="#7c7c7c"/></g><g transform="matrix(0.78801,0.34427,-0.61566,0.44065,-129.769,-248.195)"><rect x="66" y="35" width="10" height="10" rx="5" fill="#7c7c7c"/></g><g transform="matrix(0.78801,0.34427,-0.61566,0.44065,-129.769,-248.195)"><rect x="36" y="62" width="22" height="22" rx="7" fill="#d3ff36"/></g><g transform="matrix(0.78801,0.34427,-0.61566,0.44065,-129.769,-248.195)"><rect x="240" y="71" width="36" height="5" rx="2.5" fill="#e8e8e8"/></g><g transform="matrix(0.78801,0.34427,-0.61566,0.44065,-129.769,-248.195)"><rect x="36" y="136" width="170" height="16" rx="8.0" fill="#d3ff36"/></g><g transform="matrix(0.78801,0.34427,-0.61566,0.44065,-129.769,-248.195)"><rect x="36" y="202" width="92" height="26" rx="13" fill="#d3ff36"/></g><g transform="matrix(0.78801,0.34427,-0.61566,0.44065,-129.769,-248.195)"><rect x="36" y="178" width="150" height="5" rx="2.5" fill="#5a5a5a"/></g><g transform="matrix(0.78801,0.34427,-0.61566,0.44065,-129.769,-248.195)"><rect x="296" y="71" width="36" height="5" rx="2.5" fill="#5a5a5a"/></g><g transform="matrix(0.78801,0.34427,-0.61566,0.44065,-129.769,-248.195)"><rect x="36" y="112" width="230" height="16" rx="8.0" fill="#f2f2f2"/></g><g transform="matrix(0.78801,0.34427,-0.61566,0.44065,-129.769,-248.195)"><rect x="36" y="166" width="200" height="5" rx="2.5" fill="#5a5a5a"/></g><g transform="matrix(0.78801,0.34427,-0.61566,0.44065,-129.769,-248.195)"><rect x="352" y="71" width="36" height="5" rx="2.5" fill="#5a5a5a"/></g><g transform="matrix(0.78801,0.34427,-0.61566,0.44065,-129.769,-248.195)"><rect x="136" y="202" width="82" height="26" rx="13" fill="#2b2b2b" stroke="#7c7c7c" stroke-width="1" vector-effect="non-scaling-stroke"/></g><g transform="matrix(0.78801,0.34427,-0.61566,0.44065,-129.769,-248.195)"><rect x="260" y="32" width="200" height="16" rx="8" fill="#212121" stroke="#7c7c7c" stroke-width="1" vector-effect="non-scaling-stroke"/></g><g transform="matrix(0.78801,0.34427,-0.61566,0.44065,-129.769,-248.195)"><rect x="408" y="71" width="36" height="5" rx="2.5" fill="#5a5a5a"/></g><g transform="matrix(0.78801,0.34427,-0.61566,0.44065,-129.769,-247.366)"><rect x="36" y="268" width="210" height="104" rx="16" fill="#151515"/></g><g transform="matrix(0.78801,0.34427,-0.61566,0.44065,-129.769,-248.668)"><rect x="36" y="268" width="210" height="104" rx="16" fill="#151515"/></g><g transform="matrix(0.78801,0.34427,-0.61566,0.44065,-129.769,-249.971)"><rect x="36" y="268" width="210" height="104" rx="16" fill="#151515"/></g><g transform="matrix(0.78801,0.34427,-0.61566,0.44065,-129.769,-251.274)"><rect x="36" y="268" width="210" height="104" rx="16" fill="#151515"/></g><g transform="matrix(0.78801,0.34427,-0.61566,0.44065,-129.769,-252.577)"><rect x="36" y="268" width="210" height="104" rx="16" fill="#151515"/></g><g transform="matrix(0.78801,0.34427,-0.61566,0.44065,-129.769,-253.879)"><rect x="36" y="268" width="210" height="104" rx="16" fill="#151515"/></g><g transform="matrix(0.78801,0.34427,-0.61566,0.44065,-129.769,-255.182)"><rect x="36" y="268" width="210" height="104" rx="16" fill="#151515"/></g><g transform="matrix(0.78801,0.34427,-0.61566,0.44065,-129.769,-256.485)"><rect x="36" y="268" width="210" height="104" rx="16" fill="#151515"/></g><g transform="matrix(0.78801,0.34427,-0.61566,0.44065,-129.769,-257.788)"><rect x="36" y="268" width="210" height="104" rx="16" fill="#151515"/></g><g transform="matrix(0.78801,0.34427,-0.61566,0.44065,-129.769,-259.091)"><rect x="36" y="268" width="210" height="104" rx="16" fill="#151515"/></g><g transform="matrix(0.78801,0.34427,-0.61566,0.44065,-129.769,-260.393)"><rect x="36" y="268" width="210" height="104" rx="16" fill="#151515"/></g><g transform="matrix(0.78801,0.34427,-0.61566,0.44065,-129.769,-261.696)"><rect x="36" y="268" width="210" height="104" rx="16" fill="#151515"/></g><g transform="matrix(0.78801,0.34427,-0.61566,0.44065,-129.769,-262.999)"><rect x="36" y="268" width="210" height="104" rx="16" fill="#151515"/></g><g transform="matrix(0.78801,0.34427,-0.61566,0.44065,-129.769,-264.302)"><rect x="36" y="268" width="210" height="104" rx="16" fill="#151515"/></g><g transform="matrix(0.78801,0.34427,-0.61566,0.44065,-129.769,-265.604)"><rect x="36" y="268" width="210" height="104" rx="16" fill="#212121" stroke="#7c7c7c" stroke-width="1" vector-effect="non-scaling-stroke"/></g><g transform="matrix(0.78801,0.34427,-0.61566,0.44065,-129.769,-248.195)"><rect x="608" y="62" width="76" height="22" rx="11" fill="#ffffff"/></g><g transform="matrix(0.78801,0.34427,-0.61566,0.44065,-129.769,-247.366)"><rect x="254" y="268" width="210" height="104" rx="16" fill="#151515"/></g><g transform="matrix(0.78801,0.34427,-0.61566,0.44065,-129.769,-248.668)"><rect x="254" y="268" width="210" height="104" rx="16" fill="#151515"/></g><g transform="matrix(0.78801,0.34427,-0.61566,0.44065,-129.769,-249.971)"><rect x="254" y="268" width="210" height="104" rx="16" fill="#151515"/></g><g transform="matrix(0.78801,0.34427,-0.61566,0.44065,-129.769,-251.274)"><rect x="254" y="268" width="210" height="104" rx="16" fill="#151515"/></g><g transform="matrix(0.78801,0.34427,-0.61566,0.44065,-129.769,-252.577)"><rect x="254" y="268" width="210" height="104" rx="16" fill="#151515"/></g><g transform="matrix(0.78801,0.34427,-0.61566,0.44065,-129.769,-253.879)"><rect x="254" y="268" width="210" height="104" rx="16" fill="#151515"/></g><g transform="matrix(0.78801,0.34427,-0.61566,0.44065,-129.769,-255.182)"><rect x="254" y="268" width="210" height="104" rx="16" fill="#151515"/></g><g transform="matrix(0.78801,0.34427,-0.61566,0.44065,-129.769,-256.485)"><rect x="254" y="268" width="210" height="104" rx="16" fill="#151515"/></g><g transform="matrix(0.78801,0.34427,-0.61566,0.44065,-129.769,-257.788)"><rect x="254" y="268" width="210" height="104" rx="16" fill="#151515"/></g><g transform="matrix(0.78801,0.34427,-0.61566,0.44065,-129.769,-259.091)"><rect x="254" y="268" width="210" height="104" rx="16" fill="#151515"/></g><g transform="matrix(0.78801,0.34427,-0.61566,0.44065,-129.769,-260.393)"><rect x="254" y="268" width="210" height="104" rx="16" fill="#151515"/></g><g transform="matrix(0.78801,0.34427,-0.61566,0.44065,-129.769,-261.696)"><rect x="254" y="268" width="210" height="104" rx="16" fill="#151515"/></g><g transform="matrix(0.78801,0.34427,-0.61566,0.44065,-129.769,-262.999)"><rect x="254" y="268" width="210" height="104" rx="16" fill="#151515"/></g><g transform="matrix(0.78801,0.34427,-0.61566,0.44065,-129.769,-264.302)"><rect x="254" y="268" width="210" height="104" rx="16" fill="#151515"/></g><g transform="matrix(0.78801,0.34427,-0.61566,0.44065,-129.769,-265.604)"><rect x="254" y="268" width="210" height="104" rx="16" fill="#212121" stroke="#7c7c7c" stroke-width="1" vector-effect="non-scaling-stroke"/></g><g transform="matrix(0.78801,0.34427,-0.61566,0.44065,-129.769,-247.366)"><rect x="340" y="104" width="344" height="128" rx="16" fill="#151515"/></g><g transform="matrix(0.78801,0.34427,-0.61566,0.44065,-129.769,-248.668)"><rect x="340" y="104" width="344" height="128" rx="16" fill="#151515"/></g><g transform="matrix(0.78801,0.34427,-0.61566,0.44065,-129.769,-249.971)"><rect x="340" y="104" width="344" height="128" rx="16" fill="#151515"/></g><g transform="matrix(0.78801,0.34427,-0.61566,0.44065,-129.769,-251.274)"><rect x="340" y="104" width="344" height="128" rx="16" fill="#151515"/></g><g transform="matrix(0.78801,0.34427,-0.61566,0.44065,-129.769,-252.577)"><rect x="340" y="104" width="344" height="128" rx="16" fill="#151515"/></g><g transform="matrix(0.78801,0.34427,-0.61566,0.44065,-129.769,-253.879)"><rect x="340" y="104" width="344" height="128" rx="16" fill="#151515"/></g><g transform="matrix(0.78801,0.34427,-0.61566,0.44065,-129.769,-255.182)"><rect x="340" y="104" width="344" height="128" rx="16" fill="#151515"/></g><g transform="matrix(0.78801,0.34427,-0.61566,0.44065,-129.769,-256.485)"><rect x="340" y="104" width="344" height="128" rx="16" fill="#151515"/></g><g transform="matrix(0.78801,0.34427,-0.61566,0.44065,-129.769,-257.788)"><rect x="340" y="104" width="344" height="128" rx="16" fill="#151515"/></g><g transform="matrix(0.78801,0.34427,-0.61566,0.44065,-129.769,-259.091)"><rect x="340" y="104" width="344" height="128" rx="16" fill="#151515"/></g><g transform="matrix(0.78801,0.34427,-0.61566,0.44065,-129.769,-260.393)"><rect x="340" y="104" width="344" height="128" rx="16" fill="#151515"/></g><g transform="matrix(0.78801,0.34427,-0.61566,0.44065,-129.769,-261.696)"><rect x="340" y="104" width="344" height="128" rx="16" fill="#151515"/></g><g transform="matrix(0.78801,0.34427,-0.61566,0.44065,-129.769,-262.999)"><rect x="340" y="104" width="344" height="128" rx="16" fill="#151515"/></g><g transform="matrix(0.78801,0.34427,-0.61566,0.44065,-129.769,-264.302)"><rect x="340" y="104" width="344" height="128" rx="16" fill="#151515"/></g><g transform="matrix(0.78801,0.34427,-0.61566,0.44065,-129.769,-265.604)"><rect x="340" y="104" width="344" height="128" rx="16" fill="#212121" stroke="#7c7c7c" stroke-width="1" vector-effect="non-scaling-stroke"/></g><g transform="matrix(0.78801,0.34427,-0.61566,0.44065,-129.769,-247.366)"><rect x="472" y="268" width="210" height="104" rx="16" fill="#151515"/></g><g transform="matrix(0.78801,0.34427,-0.61566,0.44065,-129.769,-248.668)"><rect x="472" y="268" width="210" height="104" rx="16" fill="#151515"/></g><g transform="matrix(0.78801,0.34427,-0.61566,0.44065,-129.769,-249.971)"><rect x="472" y="268" width="210" height="104" rx="16" fill="#151515"/></g><g transform="matrix(0.78801,0.34427,-0.61566,0.44065,-129.769,-251.274)"><rect x="472" y="268" width="210" height="104" rx="16" fill="#151515"/></g><g transform="matrix(0.78801,0.34427,-0.61566,0.44065,-129.769,-252.577)"><rect x="472" y="268" width="210" height="104" rx="16" fill="#151515"/></g><g transform="matrix(0.78801,0.34427,-0.61566,0.44065,-129.769,-253.879)"><rect x="472" y="268" width="210" height="104" rx="16" fill="#151515"/></g><g transform="matrix(0.78801,0.34427,-0.61566,0.44065,-129.769,-255.182)"><rect x="472" y="268" width="210" height="104" rx="16" fill="#151515"/></g><g transform="matrix(0.78801,0.34427,-0.61566,0.44065,-129.769,-256.485)"><rect x="472" y="268" width="210" height="104" rx="16" fill="#151515"/></g><g transform="matrix(0.78801,0.34427,-0.61566,0.44065,-129.769,-257.788)"><rect x="472" y="268" width="210" height="104" rx="16" fill="#151515"/></g><g transform="matrix(0.78801,0.34427,-0.61566,0.44065,-129.769,-259.091)"><rect x="472" y="268" width="210" height="104" rx="16" fill="#151515"/></g><g transform="matrix(0.78801,0.34427,-0.61566,0.44065,-129.769,-260.393)"><rect x="472" y="268" width="210" height="104" rx="16" fill="#151515"/></g><g transform="matrix(0.78801,0.34427,-0.61566,0.44065,-129.769,-261.696)"><rect x="472" y="268" width="210" height="104" rx="16" fill="#151515"/></g><g transform="matrix(0.78801,0.34427,-0.61566,0.44065,-129.769,-262.999)"><rect x="472" y="268" width="210" height="104" rx="16" fill="#151515"/></g><g transform="matrix(0.78801,0.34427,-0.61566,0.44065,-129.769,-264.302)"><rect x="472" y="268" width="210" height="104" rx="16" fill="#151515"/></g><g transform="matrix(0.78801,0.34427,-0.61566,0.44065,-129.769,-265.604)"><rect x="472" y="268" width="210" height="104" rx="16" fill="#212121" stroke="#7c7c7c" stroke-width="1" vector-effect="non-scaling-stroke"/></g><g transform="matrix(0.78801,0.34427,-0.61566,0.44065,-129.769,-247.366)"><rect x="36" y="410" width="648" height="52" rx="14" fill="#151515"/></g><g transform="matrix(0.78801,0.34427,-0.61566,0.44065,-129.769,-248.668)"><rect x="36" y="410" width="648" height="52" rx="14" fill="#151515"/></g><g transform="matrix(0.78801,0.34427,-0.61566,0.44065,-129.769,-249.971)"><rect x="36" y="410" width="648" height="52" rx="14" fill="#151515"/></g><g transform="matrix(0.78801,0.34427,-0.61566,0.44065,-129.769,-251.274)"><rect x="36" y="410" width="648" height="52" rx="14" fill="#151515"/></g><g transform="matrix(0.78801,0.34427,-0.61566,0.44065,-129.769,-252.577)"><rect x="36" y="410" width="648" height="52" rx="14" fill="#151515"/></g><g transform="matrix(0.78801,0.34427,-0.61566,0.44065,-129.769,-253.879)"><rect x="36" y="410" width="648" height="52" rx="14" fill="#151515"/></g><g transform="matrix(0.78801,0.34427,-0.61566,0.44065,-129.769,-255.182)"><rect x="36" y="410" width="648" height="52" rx="14" fill="#151515"/></g><g transform="matrix(0.78801,0.34427,-0.61566,0.44065,-129.769,-256.485)"><rect x="36" y="410" width="648" height="52" rx="14" fill="#151515"/></g><g transform="matrix(0.78801,0.34427,-0.61566,0.44065,-129.769,-257.788)"><rect x="36" y="410" width="648" height="52" rx="14" fill="#151515"/></g><g transform="matrix(0.78801,0.34427,-0.61566,0.44065,-129.769,-259.091)"><rect x="36" y="410" width="648" height="52" rx="14" fill="#151515"/></g><g transform="matrix(0.78801,0.34427,-0.61566,0.44065,-129.769,-260.393)"><rect x="36" y="410" width="648" height="52" rx="14" fill="#151515"/></g><g transform="matrix(0.78801,0.34427,-0.61566,0.44065,-129.769,-261.696)"><rect x="36" y="410" width="648" height="52" rx="14" fill="#151515"/></g><g transform="matrix(0.78801,0.34427,-0.61566,0.44065,-129.769,-262.999)"><rect x="36" y="410" width="648" height="52" rx="14" fill="#151515"/></g><g transform="matrix(0.78801,0.34427,-0.61566,0.44065,-129.769,-264.302)"><rect x="36" y="410" width="648" height="52" rx="14" fill="#151515"/></g><g transform="matrix(0.78801,0.34427,-0.61566,0.44065,-129.769,-265.604)"><rect x="36" y="410" width="648" height="52" rx="14" fill="#212121" stroke="#7c7c7c" stroke-width="1" vector-effect="non-scaling-stroke"/></g><g transform="matrix(0.78801,0.34427,-0.61566,0.44065,-129.769,-266.433)"><rect x="52" y="282" width="30" height="30" rx="9" fill="#ffb7ff"/></g><g transform="matrix(0.78801,0.34427,-0.61566,0.44065,-129.769,-266.433)"><rect x="52" y="326" width="110" height="8" rx="4.0" fill="#f2f2f2"/></g><g transform="matrix(0.78801,0.34427,-0.61566,0.44065,-129.769,-266.433)"><rect x="206" y="284" width="24" height="24" rx="12" fill="#212121" stroke="#7c7c7c" stroke-width="1" vector-effect="non-scaling-stroke"/></g><g transform="matrix(0.78801,0.34427,-0.61566,0.44065,-129.769,-266.433)"><rect x="52" y="342" width="140" height="5" rx="2.5" fill="#5a5a5a"/></g><g transform="matrix(0.78801,0.34427,-0.61566,0.44065,-129.769,-266.433)"><rect x="56" y="426" width="20" height="20" rx="6" fill="#d3ff36"/></g><g transform="matrix(0.78801,0.34427,-0.61566,0.44065,-129.769,-266.433)"><rect x="270" y="282" width="30" height="30" rx="9" fill="#d3ff36"/></g><g transform="matrix(0.78801,0.34427,-0.61566,0.44065,-129.769,-266.433)"><rect x="84" y="433" width="70" height="6" rx="3.0" fill="#f2f2f2"/></g><g transform="matrix(0.78801,0.34427,-0.61566,0.44065,-129.769,-266.433)"><rect x="270" y="326" width="110" height="8" rx="4.0" fill="#f2f2f2"/></g><g transform="matrix(0.78801,0.34427,-0.61566,0.44065,-129.769,-266.433)"><rect x="424" y="284" width="24" height="24" rx="12" fill="#212121" stroke="#7c7c7c" stroke-width="1" vector-effect="non-scaling-stroke"/></g><g transform="matrix(0.78801,0.34427,-0.61566,0.44065,-129.769,-266.433)"><rect x="270" y="342" width="140" height="5" rx="2.5" fill="#5a5a5a"/></g><g transform="matrix(0.78801,0.34427,-0.61566,0.44065,-129.769,-266.433)"><rect x="488" y="282" width="30" height="30" rx="9" fill="#99ace7"/></g><g transform="matrix(0.78801,0.34427,-0.61566,0.44065,-129.769,-266.433)"><rect x="362" y="124" width="300" height="88" rx="12" fill="#2b2b2b" stroke="#7c7c7c" stroke-width="1" vector-effect="non-scaling-stroke"/></g><g transform="matrix(0.78801,0.34427,-0.61566,0.44065,-129.769,-266.433)"><rect x="488" y="326" width="110" height="8" rx="4.0" fill="#f2f2f2"/></g><g transform="matrix(0.78801,0.34427,-0.61566,0.44065,-129.769,-266.433)"><rect x="440" y="434" width="40" height="5" rx="2.5" fill="#5a5a5a"/></g><g transform="matrix(0.78801,0.34427,-0.61566,0.44065,-129.769,-266.433)"><rect x="642" y="284" width="24" height="24" rx="12" fill="#212121" stroke="#7c7c7c" stroke-width="1" vector-effect="non-scaling-stroke"/></g><g transform="matrix(0.78801,0.34427,-0.61566,0.44065,-129.769,-266.433)"><rect x="488" y="342" width="140" height="5" rx="2.5" fill="#5a5a5a"/></g><g transform="matrix(0.78801,0.34427,-0.61566,0.44065,-129.769,-266.433)"><rect x="498" y="434" width="40" height="5" rx="2.5" fill="#5a5a5a"/></g><g transform="matrix(0.78801,0.34427,-0.61566,0.44065,-129.769,-266.433)"><rect x="556" y="434" width="40" height="5" rx="2.5" fill="#5a5a5a"/></g><g transform="matrix(0.78801,0.34427,-0.61566,0.44065,-129.769,-266.433)"><rect x="614" y="434" width="40" height="5" rx="2.5" fill="#4c74fa"/></g><g transform="matrix(0.78801,0.34427,-0.61566,0.44065,-129.769,-267.262)"><rect x="380" y="170" width="18" height="30" rx="5" fill="#99ace7"/></g><g transform="matrix(0.78801,0.34427,-0.61566,0.44065,-129.769,-267.262)"><rect x="411" y="152" width="18" height="48" rx="5" fill="#99ace7"/></g><g transform="matrix(0.78801,0.34427,-0.61566,0.44065,-129.769,-267.262)"><rect x="442" y="162" width="18" height="38" rx="5" fill="#99ace7"/></g><g transform="matrix(0.78801,0.34427,-0.61566,0.44065,-129.769,-267.262)"><rect x="473" y="136" width="18" height="64" rx="5" fill="#99ace7"/></g><g transform="matrix(0.78801,0.34427,-0.61566,0.44065,-129.769,-267.262)"><rect x="504" y="148" width="18" height="52" rx="5" fill="#99ace7"/></g><g transform="matrix(0.78801,0.34427,-0.61566,0.44065,-129.769,-267.262)"><rect x="535" y="142" width="18" height="58" rx="5" fill="#99ace7"/></g><g transform="matrix(0.78801,0.34427,-0.61566,0.44065,-129.769,-267.262)"><rect x="566" y="156" width="18" height="44" rx="5" fill="#99ace7"/></g><g transform="matrix(0.78801,0.34427,-0.61566,0.44065,-129.769,-267.262)"><rect x="597" y="130" width="18" height="70" rx="5" fill="#d3ff36"/></g><g transform="matrix(0.78801,0.34427,-0.61566,0.44065,-129.769,-267.262)"><rect x="628" y="144" width="18" height="56" rx="5" fill="#99ace7"/></g></svg>