<svg xmlns="http://www.w3.org/2000/svg" viewBox="-437.3 -328.5 874.7 583.5" shape-rendering="geometricPrecision"><path d="M-420.57 -74.30L-419.68 -78.19L-417.08 -81.81L-412.95 -84.92L-96.17 -267.81L-90.78 -270.20L-84.51 -271.70L-77.78 -272.21L-71.05 -271.70L-64.78 -270.20L-59.40 -267.81L412.95 4.90L417.08 8.01L419.68 11.63L420.57 15.51L420.57 44.91L419.68 48.79L417.08 52.41L412.95 55.52L96.17 238.42L90.78 240.80L84.51 242.30L77.78 242.81L71.05 242.30L64.78 240.80L59.40 238.42L-412.95 -34.29L-417.08 -37.40L-419.68 -41.02L-420.57 -44.91Z" fill="#e3e3e3" stroke="#4a4a4a" stroke-width=".6" vector-effect="non-scaling-stroke" stroke-linejoin="round"/><path d="M77.78 213.42L77.78 242.81" stroke="#4a4a4a" stroke-width=".6" vector-effect="non-scaling-stroke"/><path d="M412.95 4.90L417.08 8.01L419.68 11.63L420.57 15.51L419.68 19.40L417.08 23.02L412.95 26.13L96.17 209.02L90.78 211.41L84.51 212.91L77.78 213.42L71.05 212.91L64.78 211.41L59.40 209.02L-412.95 -63.69L-417.08 -66.80L-419.68 -70.42L-420.57 -74.30L-419.68 -78.19L-417.08 -81.81L-412.95 -84.92L-96.17 -267.81L-90.78 -270.20L-84.51 -271.70L-77.78 -272.21L-71.05 -271.70L-64.78 -270.20L-59.40 -267.81Z" fill="#efefef" stroke="#4a4a4a" stroke-width=".6" vector-effect="non-scaling-stroke"/><circle cx="-77.78" cy="-267.16" r="2.4" fill="#1a1a1a"/><circle cx="411.82" cy="15.51" r="2.4" fill="#1a1a1a"/><circle cx="77.78" cy="208.37" r="2.4" fill="#1a1a1a"/><circle cx="-411.82" cy="-74.30" r="2.4" fill="#1a1a1a"/><circle cx="411.82" cy="39.62" r="2.4" fill="#1a1a1a"/><circle cx="77.78" cy="232.47" r="2.4" fill="#1a1a1a"/><circle cx="-411.82" cy="-50.20" r="2.4" fill="#1a1a1a"/></svg>